<?xml version="1.0" encoding="utf-8"?>
<!-- Generator: Adobe Illustrator 23.0.1, SVG Export Plug-In . SVG Version: 6.00 Build 0)  -->
<svg version="1.1" id="Layer_2" xmlns="http://www.w3.org/2000/svg" xmlns:xlink="http://www.w3.org/1999/xlink" x="0px" y="0px"
	 viewBox="0 0 500 500" style="enable-background:new 0 0 500 500;" xml:space="preserve">
<circle cx="141.91" cy="60.43" r="53.82"/>
<circle cx="249" cy="467.9" r="27.48"/>
<circle cx="333.21" cy="467.9" r="27.48"/>
<path d="M420,215.57h20.89c11.18,0,20.25,9.07,20.25,20.25v0c0,11.18-9.07,20.25-20.25,20.25h-22.61l-35.72,122.52
	c-5.74,18.78-23.07,31.61-42.7,31.61h-97.13c-19.74,0-37.14-12.96-42.79-31.88l-23-77.03c-5.1-17.1,7.7-34.28,25.54-34.28h167.79
	l10.96-33.74c3.43-10.55,13.26-17.69,24.35-17.69H420z"/>
<path d="M166.41,388.33l-23-77.03c-5.63-18.85-2.11-38.7,9.64-54.48C164.8,241.05,182.82,232,202.49,232h7.16l3.64-29.71l48.7,29.71
	h82.41c-0.63-1.72-2.19-4.81-5.83-7.42l0.04-0.01c0,0-116.74-82.71-127.89-90c-11.14-7.29-38.14-4.71-38.14-4.71l-28.71,38.57
	l-31.71-39.01l-24.11,0.7c-27.28,0.8-48.63,23.77-47.43,51.03l3.29,74.69c0.6,13.56,8.27,25.82,20.22,32.27l18.03,9.74l22.66,180.91
	c1.01,8.05,7.85,14.09,15.96,14.09h42.71c8.13,0,14.98-6.06,15.97-14.13l6.96-56.87C177.08,412.57,170.24,401.16,166.41,388.33z"/>
</svg>
