<?xml version="1.0" encoding="utf-8"?>
<!-- Generator: Adobe Illustrator 23.0.1, SVG Export Plug-In . SVG Version: 6.00 Build 0)  -->
<svg version="1.1" xmlns="http://www.w3.org/2000/svg" xmlns:xlink="http://www.w3.org/1999/xlink" x="0px" y="0px"
	 viewBox="0 0 500 500" style="enable-background:new 0 0 500 500;" xml:space="preserve">
<style type="text/css">
	.st0{fill:#333333;}
</style>
<g id="Fire">
	<g>
		<path class="st0" d="M138.32,79.93c4.46,16.31-5.27,26.9-11.4,31.73c-7.83,4.11-13.17,12.31-13.17,21.77
			c0,13.57,11,24.57,24.57,24.57c11.85,0,21.74-8.39,24.06-19.56l0.51,0.31C169.68,94.39,138.32,79.93,138.32,79.93z"/>
		<path class="st0" d="M242.41,79.93c4.46,16.31-5.27,26.9-11.4,31.73c-7.83,4.11-13.17,12.31-13.17,21.77
			c0,13.57,11,24.57,24.57,24.57c11.85,0,21.74-8.39,24.06-19.56l0.51,0.31C273.77,94.39,242.41,79.93,242.41,79.93z"/>
		<path class="st0" d="M344.63,79.93c4.46,16.31-5.27,26.9-11.4,31.73c-7.83,4.11-13.17,12.31-13.17,21.77
			c0,13.57,11,24.57,24.57,24.57c11.85,0,21.74-8.39,24.06-19.56l0.51,0.31C375.98,94.39,344.63,79.93,344.63,79.93z"/>
	</g>
</g>
<g id="Cake">
	<g>
		<path class="st0" d="M385.73,349.07c-4.6-4.8-6.5-6.79-16.3-6.79c-10.14,0-12.53,2.26-17.76,7.21
			c-9.41,8.91-19.85,16.9-43.96,16.9c-24.55,0-34.56-8.67-42.71-17.55c-4.26-4.64-6.02-6.56-16.11-6.56
			c-10.91,0-13.3,2.35-18.55,7.5c-7.15,7.01-16.94,16.61-41.23,16.61c-23.97,0-35.16-9.35-43.34-16.17
			c-6.33-5.28-9.5-7.93-19.34-7.93c-9.88,0-12.7,2.66-18.32,7.97c-7.22,6.81-17.11,16.14-38.57,16.14c-2.43,0-4.74-0.13-6.96-0.36
			v76.46h360.64v-76.24C402.88,365.18,393.83,357.53,385.73,349.07z"/>
		<path class="st0" d="M69.54,335.39c9.15,0,11.71-2.41,17.3-7.69c7.34-6.93,17.4-16.42,39.59-16.42c21.08,0,31.56,8.75,39.21,15.14
			c6.7,5.59,10.74,8.97,23.47,8.97c11.63,0,14.27-2.59,19.53-7.75c7.04-6.9,16.69-16.36,40.26-16.36c23.71,0,32.88,9.99,38.95,16.6
			c4.45,4.84,6.89,7.51,19.88,7.51c13.76,0,17.11-3.17,22.65-8.41c7-6.62,16.58-15.69,39.07-15.69c21.27,0,30.44,7.73,38.69,16.34
			c4.08,4.26,6.61,6.89,15.1,7.58v-36.98c0-19.5-15.81-35.31-35.31-35.31h-13.87V172.5h-52.07v90.42h-53.04V172.5h-52.07v90.42
			h-50.14V172.5h-52.07v90.42H97.88c-19.5,0-35.31,15.81-35.31,35.31v36.5C64.59,335.15,66.89,335.39,69.54,335.39z"/>
	</g>
</g>
</svg>
