<?xml version="1.0" encoding="utf-8"?>
<!-- Generator: Adobe Illustrator 23.0.1, SVG Export Plug-In . SVG Version: 6.00 Build 0)  -->
<svg version="1.1" id="Layer_1" xmlns="http://www.w3.org/2000/svg" xmlns:xlink="http://www.w3.org/1999/xlink" x="0px" y="0px"
	 viewBox="0 0 500 500" style="enable-background:new 0 0 500 500;" xml:space="preserve">
<path d="M172,420.6V371h-61.5C87.6,371,69,352.4,69,329.5V142.2c0-15.6,12.7-28.2,28.3-28.2H145v161.7c0,9.6,7.8,17.3,17.4,17.3
	h74.9c0,0,9.9,2.4,13.7,5.6l57,47.6v-40.8c0.3-6.5,5.6-11.8,12.1-11.4h78.8c8.9-0.4,16.1-16.4,16.1-16.4V102.2
	c0-9.5-7.8-17.3-17.3-17.3H171.1c-5.1,0-9.3-4.5-8.1-9.8c0.8-3.7,4.2-6.2,8-6.2l219.9,0c22.1,0,40.1,17.8,40.1,39.9v171.7
	c0,16.2-13.2,29.4-29.5,29.4H324v55.8c0,5.9-6.9,9.1-11.4,5.3L239.1,310h-92.6c-9.6,0-17.5-7.8-17.5-17.4V130h-25.3
	c-10.3,0-18.7,8.4-18.7,18.7v183.9C85,345,95,355,107.3,355H188v53.6l61.1-53.3c3.3-2.9,8.4-2.6,11.3,0.7c2.9,3.3,2.6,8.3-0.7,11.2
	l-70.2,61.2C182.7,434.3,172,429.6,172,420.6z"/>
</svg>
