<?xml version="1.0" encoding="utf-8"?>
<!-- Generator: Adobe Illustrator 23.0.1, SVG Export Plug-In . SVG Version: 6.00 Build 0)  -->
<svg version="1.1" id="Layer_1" xmlns="http://www.w3.org/2000/svg" xmlns:xlink="http://www.w3.org/1999/xlink" x="0px" y="0px"
	 viewBox="0 0 500 500" style="enable-background:new 0 0 500 500;" xml:space="preserve">
<style type="text/css">
	.st0{display:none;}
	.st1{display:inline;fill:#31A1E1;}
</style>
<g class="st0">
	<path class="st1" d="M448.3,467.3H52.9c-13.8,0-25-11.2-25-25V193.2c0-8.4,4.2-16.3,11.3-20.9L239.4,40.7
		c8.4-5.5,19.3-5.5,27.7,0.2l195.2,131.6c6.9,4.6,11,12.4,11,20.7v249.1C473.3,456.1,462.1,467.3,448.3,467.3z M77.9,417.3h345.4
		V206.5L253,91.7l-175.1,115C77.9,206.7,77.9,417.3,77.9,417.3z"/>
</g>
<path d="M450.3,274c-12.7-14.3-25.3-28.5-38-42.8c-43.7-49.2-87.4-98.4-131.1-147.6c-8.4-9.4-18.7-14.6-31.4-14.9
	c-2.9,0.4-5.8,0.6-8.7,1.3c-9.6,2-17.1,7.4-23.5,14.6c-46.4,52.3-92.8,104.7-139.2,157.1c-9.7,11-19.5,21.9-29.2,32.9
	c-2.7,3-4.2,6.4-3.2,10.5c1.1,4.3,3.8,7.2,8.1,8.3c1.3,0.3,2.5,0.4,3.6,0.3v0.1h33.5c0,30.3,0,60.6,0.1,91
	c-0.1,3.4,0.2,6.8,0.8,10.2c4.3,21.2,23.1,36.4,44.7,36.2c21.5-0.1,43,0,64.5,0c0.8,0,1.6,0,2.8-0.1l0.3-3.8
	c-0.1-35.8,0-71.7,0-107.5c-0.1-2.4,0.2-4.8,0.7-7.1c2.6-10.8,11.6-17.7,23.2-17.8c14.5-0.1,29-0.1,43.5,0c2,0.1,3.9,0.3,5.9,0.7
	c9.9,2.1,18.1,11.4,18,23.4c-0.2,36.3-0.1,72.7-0.1,109c0,1,0,2.1,0.1,3.2c0.9,0,1.5,0.1,2.2,0.1c22.4,0,44.8,0,67.2-0.1
	c2.3-0.1,4.6-0.3,6.9-0.8c21.8-4.5,36.6-22.7,36.6-44.9v-91.7h37.1v-0.4c0.7-0.2,1.4-0.4,2.1-0.8c4.2-1.9,6.3-5.4,6.4-10.1
	C454.2,279.1,452.5,276.5,450.3,274z M389.8,272.8c-1.9,0-3.4,1.5-3.4,3.4l0,0c0,5.9,0,11.8,0,17.6v91.6c0,13-10.5,23.5-23.5,23.5
	h-41.3c-4.1,0-3.9,0.7-3.9-3.8c0-29.7,0-59.3-0.1-89c0-8.9-2.9-17-8.1-24.2c-9.2-12.8-22-19.2-37.6-19.3
	c-15.9-0.1-31.8-0.3-47.7,0.4c-16.9,0.8-29.2,9.6-37.2,24.4c-3.7,6.9-5,14.5-5,22.2v86v3.3c-1,0-1.8,0.1-2.5,0.1
	c-14.5,0-29,0-43.5,0c-5.4,0-10.6-2-14.6-5.6c-5.6-5-7.9-11.3-7.9-18.7c0.1-36.3,0-72.7,0.1-109c0-2.6-0.8-3.3-3.3-3.2
	c-5.3,0.2-10.7,0.2-16,0c-0.6,0-1.1,0-1.5,0.1H80.7c1.8-2,3.6-4,5.3-6l119.7-135.1c9.9-11.1,19.7-22.3,29.7-33.4
	c8.4-9.4,20-9.5,28.6-0.4c2.6,2.7,5,5.6,7.5,8.4c49.4,55.6,98.7,111.2,148.1,166.7h-11L389.8,272.8L389.8,272.8z"/>
</svg>
