<?xml version="1.0" encoding="utf-8"?>
<!-- Generator: Adobe Illustrator 23.0.1, SVG Export Plug-In . SVG Version: 6.00 Build 0)  -->
<svg version="1.1" id="Layer_3" xmlns="http://www.w3.org/2000/svg" xmlns:xlink="http://www.w3.org/1999/xlink" x="0px" y="0px"
	 viewBox="0 0 500 500" style="enable-background:new 0 0 500 500;" xml:space="preserve">
<style type="text/css">
	.st0{fill:none;stroke:#000000;stroke-width:25;stroke-linejoin:round;stroke-miterlimit:10;}
	.st1{fill:none;stroke:#000000;stroke-width:25;stroke-miterlimit:10;}
	.st2{fill:none;stroke:#000000;stroke-width:25;stroke-linecap:round;stroke-linejoin:round;stroke-miterlimit:10;}
</style>
<path class="st0" d="M349.19,209.73c0,0.01-8.51,22.73-15.49,32.36c-29.42,51.83-81.03,112.59-81.03,112.59
	s-86.15-100.59-96.51-144.95h0c-2.27-8.37-3.49-17.16-3.49-26.25c0-55.23,44.77-100,100-100c55.23,0,100,44.77,100,100
	C352.67,183.48,352.2,200.26,349.19,209.73z"/>
<circle class="st1" cx="252.67" cy="183.48" r="35.98"/>
<polyline class="st2" points="129.21,244.87 94.66,234.07 25.19,402.77 143.51,385.98 252.67,416.52 352.67,384.45 474.81,403.54 
	406.11,234.07 372.1,247.19 "/>
<line class="st2" x1="156.16" y1="293.61" x2="143.51" y2="385.98"/>
<line class="st2" x1="340.29" y1="321" x2="352.67" y2="384.45"/>
</svg>
