<?xml version="1.0" encoding="utf-8"?>
<!-- Generator: Adobe Illustrator 23.0.1, SVG Export Plug-In . SVG Version: 6.00 Build 0)  -->
<svg version="1.1" id="Layer_1" xmlns="http://www.w3.org/2000/svg" xmlns:xlink="http://www.w3.org/1999/xlink" x="0px" y="0px"
	 viewBox="0 0 500 500" style="enable-background:new 0 0 500 500;" xml:space="preserve">
<style type="text/css">
	.st0{fill:none;stroke:#000000;stroke-width:25;stroke-miterlimit:10;}
</style>
<path class="st0" d="M283.8,82.3l32.1,65c5.5,11.1,16.1,18.8,28.4,20.6l71.7,10.4c30.9,4.5,43.3,42.5,20.9,64.3L385,293.2
	c-8.9,8.7-12.9,21.1-10.8,33.4l12.3,71.4c5.3,30.8-27,54.3-54.7,39.8L267.6,404c-11-5.8-24.1-5.8-35.1,0l-64.1,33.7
	c-27.7,14.5-60-9-54.7-39.8l12.3-71.4c2.1-12.2-2-24.7-10.8-33.4l-51.9-50.6c-22.4-21.8-10-59.8,20.9-64.3l71.7-10.4
	c12.3-1.8,22.9-9.5,28.4-20.6l32.1-65C230,54.3,270,54.3,283.8,82.3z"/>
</svg>
