<?xml version="1.0" encoding="utf-8"?>
<!-- Generator: Adobe Illustrator 23.0.1, SVG Export Plug-In . SVG Version: 6.00 Build 0)  -->
<svg version="1.1" id="Layer_1" xmlns="http://www.w3.org/2000/svg" xmlns:xlink="http://www.w3.org/1999/xlink" x="0px" y="0px"
	 viewBox="0 0 500 500" style="enable-background:new 0 0 500 500;" xml:space="preserve">
<circle cx="136.91" cy="60.43" r="53.82"/>
<path d="M344.12,224.11c-3.56,0-7.08,0.16-10.56,0.47l0.04-0.01c0,0-116.74-82.71-127.89-90c-11.14-7.29-38.14-4.71-38.14-4.71
	l-28.71,38.57l-31.71-39.01l-24.11,0.7c-27.28,0.8-48.63,23.77-47.43,51.03l3.29,74.69c0.6,13.56,8.27,25.82,20.22,32.27l18.03,9.74
	l22.66,180.91c1.01,8.05,7.85,14.09,15.96,14.09h42.71c8.13,0,14.98-6.06,15.97-14.13l33.84-276.44l69.13,42.18
	c-31.82,21.46-52.75,57.84-52.75,99.12c0,65.98,53.49,119.47,119.47,119.47s119.47-53.49,119.47-119.47S410.1,224.11,344.12,224.11z
	 M367.64,398.11c-2.94,1.68-6.13,2.99-9.49,3.97v12.84c0,3.69-2.99,6.68-6.68,6.68h-14.64c-3.69,0-6.68-2.99-6.68-6.68v-11.02
	c-9.34-1.04-18.39-3.43-25.79-6.45c-4.45-1.82-6.22-7.18-3.79-11.33l6.17-10.53c1.95-3.32,6.01-4.83,9.61-3.47
	c11.93,4.51,29.52,6.18,37.37,1.69c1.81-1.03,3.43-2.34,3.43-6.85c0-6.32-2.22-8.58-18.9-13.66c-7.17-2.18-14.58-4.44-20.93-8.71
	c-9.06-6.09-13.85-15.03-13.85-25.85c0-15.81,7.57-24.56,13.92-29.12c3.69-2.64,7.86-4.49,12.27-5.74V269.9
	c0-3.38,2.74-6.12,6.12-6.12h15.77c3.38,0,6.12,2.74,6.12,6.12v12.39c7.62,0.82,14.61,2.36,19.85,3.75
	c4.42,1.17,6.92,5.86,5.45,10.2l-1.85,5.48l-2.05,6.07c-1.32,3.92-5.43,6.16-9.44,5.15c-13.08-3.29-29.79-4.97-35.92-0.56
	c-0.73,0.52-2.24,1.61-2.24,6.36c0,1.42,0.09,1.69,1.46,2.61c2.89,1.94,8.27,3.58,13.47,5.16c14.49,4.41,38.74,11.79,38.74,40.44
	C385.14,380.58,378.93,391.64,367.64,398.11z"/>
</svg>
