<?xml version="1.0" encoding="utf-8"?>
<!-- Generator: Adobe Illustrator 23.0.1, SVG Export Plug-In . SVG Version: 6.00 Build 0)  -->
<svg version="1.1" id="Layer_2" xmlns="http://www.w3.org/2000/svg" xmlns:xlink="http://www.w3.org/1999/xlink" x="0px" y="0px"
	 viewBox="0 0 500 500" style="enable-background:new 0 0 500 500;" xml:space="preserve">
<style type="text/css">
	.st0{fill:none;stroke:#000000;stroke-width:25;stroke-miterlimit:10;}
	.st1{fill:none;stroke:#000000;stroke-width:25;stroke-linecap:round;stroke-miterlimit:10;}
</style>
<circle class="st0" cx="250" cy="250" r="80.45"/>
<circle class="st0" cx="250" cy="60.35" r="26.5"/>
<line class="st1" x1="250" y1="169.55" x2="250" y2="126.08"/>
<circle class="st0" cx="250" cy="439.65" r="26.5"/>
<line class="st1" x1="250" y1="330.45" x2="250" y2="373.92"/>
<circle class="st0" cx="439.65" cy="250" r="26.5"/>
<line class="st1" x1="330.45" y1="250" x2="373.92" y2="250"/>
<circle class="st0" cx="60.35" cy="250" r="26.5"/>
<line class="st1" x1="169.55" y1="250" x2="126.08" y2="250"/>
<circle class="st0" cx="384.1" cy="115.9" r="26.5"/>
<line class="st1" x1="306.89" y1="193.11" x2="337.62" y2="162.38"/>
<circle class="st0" cx="115.9" cy="384.1" r="26.5"/>
<line class="st1" x1="193.11" y1="306.89" x2="162.38" y2="337.62"/>
<circle class="st0" cx="384.1" cy="384.1" r="26.5"/>
<line class="st1" x1="306.89" y1="306.89" x2="337.62" y2="337.62"/>
<circle class="st0" cx="115.9" cy="115.9" r="26.5"/>
<line class="st1" x1="193.11" y1="193.11" x2="162.38" y2="162.38"/>
</svg>
