<svg height="512" viewBox="0 0 42 60" width="512" xmlns="http://www.w3.org/2000/svg"><g id="014---Smartphone-Home" fill="none"><path id="Shape" d="m38 5v50c0 2.209139-1.790861 4-4 4h-26c-1.33238901-.0002358-2.57719314-.6638813-3.32-1.77l.32-.23c0-57 28.24-54.8 31.66-55 .8557153.76193094 1.3436117 1.85423631 1.34 3z" fill="#26b99a"/><path id="Shape" d="m36.66 2c-3.42.2-31.66 3.33-31.66 55l-.32.23c-.44643448-.6577164-.68348103-1.4350896-.68-2.23v-50c0-2.209139 1.790861-4 4-4h26c.979177-.003481 1.9256188.3523242 2.66 1z" fill="#81ccb8"/><path id="Shape" d="m30 56h-18c-.5522847 0-1-.4477153-1-1s.4477153-1 1-1h18c.5522847 0 1 .4477153 1 1s-.4477153 1-1 1z" fill="#464f5d"/><g fill="#393f4a"><path id="Shape" d="m2 7h2v9h-2c-1.1045695 0-2-.8954305-2-2v-5c0-1.1045695.8954305-2 2-2z"/><path id="Shape" d="m2 19h2v9h-2c-1.1045695 0-2-.8954305-2-2v-5c0-1.1045695.8954305-2 2-2z"/><path id="Shape" d="m40 7h2v9h-2c-1.1045695 0-2-.8954305-2-2v-5c0-1.1045695.8954305-2 2-2z" transform="matrix(-1 0 0 -1 80 23)"/></g><path id="Shape" d="m34 60h-26c-2.76142375 0-5-2.2385763-5-5v-50c0-2.76142375 2.23857625-5 5-5h26c1.3260824 0 2.597852.5267842 3.5355339 1.46446609.9376819.9376819 1.4644661 2.20945146 1.4644661 3.53553391v50c0 1.3260824-.5267842 2.597852-1.4644661 3.5355339s-2.2094515 1.4644661-3.5355339 1.4644661zm-26-58c-1.65685425 0-3 1.34314575-3 3v50c0 1.6568542 1.34314575 3 3 3h26c1.6568542 0 3-1.3431458 3-3v-50c0-1.65685425-1.3431458-3-3-3z" fill="#464f5d"/><path id="Shape" d="m27.9 6h-13.8c-.9330809.03892269-1.8094911-.44754289-2.27-1.26l-1.83-3.74h22l-1.83 3.74c-.4605089.81245711-1.3369191 1.29892269-2.27 1.26z" fill="#464f5d"/><path id="Shape" d="m28.74 17h-1.74v8c0 .5522847-.4477153 1-1 1h-3v-5h-4v5h-3c-.5522847 0-1-.4477153-1-1v-8h-1.74c-.1060586.0032497-.2026146-.0608053-.240856-.1597829-.0382414-.0989777-.0098361-.2113131.070856-.2802171l7.74-6.5c.0991034-.08031764.2408966-.08031764.34 0l7.74 6.5c.0806921.068904.1090974.1812394.070856.2802171-.0382414.0989776-.1347974.1630326-.240856.1597829z" fill="#f5efca"/><path id="Shape" d="m33 34h-17c-.5522847 0-1-.4477153-1-1s.4477153-1 1-1h17c.5522847 0 1 .4477153 1 1s-.4477153 1-1 1z" fill="#41767f"/><path id="Shape" d="m12 34h-3c-.55228475 0-1-.4477153-1-1s.44771525-1 1-1h3c.5522847 0 1 .4477153 1 1s-.4477153 1-1 1z" fill="#41767f"/><circle id="Oval" cx="14" cy="33" fill="#35495e" r="2"/><path id="Shape" d="m26 40h-17c-.55228475 0-1-.4477153-1-1s.44771525-1 1-1h17c.5522847 0 1 .4477153 1 1s-.4477153 1-1 1z" fill="#41767f"/><path id="Shape" d="m33 40h-3c-.5522847 0-1-.4477153-1-1s.4477153-1 1-1h3c.5522847 0 1 .4477153 1 1s-.4477153 1-1 1z" fill="#41767f"/><circle id="Oval" cx="28" cy="39" fill="#35495e" r="2"/><path id="Shape" d="m33 46h-17c-.5522847 0-1-.4477153-1-1s.4477153-1 1-1h17c.5522847 0 1 .4477153 1 1s-.4477153 1-1 1z" fill="#41767f"/><path id="Shape" d="m12 46h-3c-.55228475 0-1-.4477153-1-1s.44771525-1 1-1h3c.5522847 0 1 .4477153 1 1s-.4477153 1-1 1z" fill="#41767f"/><circle id="Oval" cx="14" cy="45" fill="#35495e" r="2"/></g></svg>