<?xml version="1.0" encoding="utf-8"?>
<!-- Generator: Adobe Illustrator 23.0.1, SVG Export Plug-In . SVG Version: 6.00 Build 0)  -->
<svg version="1.1" id="Layer_1" xmlns="http://www.w3.org/2000/svg" xmlns:xlink="http://www.w3.org/1999/xlink" x="0px" y="0px"
	 viewBox="0 0 2560 1440" style="enable-background:new 0 0 2560 1440;" xml:space="preserve">
<style type="text/css">
	.st0{opacity:0.6;fill:url(#SVGID_1_);}
	.st1{opacity:0.39;fill:url(#SVGID_2_);}
</style>
<g>
	<linearGradient id="SVGID_1_" gradientUnits="userSpaceOnUse" x1="209.6926" y1="801.246" x2="2351.1411" y2="801.246">
		<stop  offset="0" style="stop-color:#00B5D7"/>
		<stop  offset="1" style="stop-color:#029FBC"/>
	</linearGradient>
	<path class="st0" d="M213.01,162.49l-3.32,1194.22c0,0,90,105.22,419.97-49.18c184.74-86.45,242.81,143.8,561.4,132.04
		c193.65-7.15,211.6-125.95,412.83-161.38c226.16-39.82,285.05,95.55,508.99,152.96c155.35,39.82,232.64-74.43,232.64-74.43V162.49
		h5.62H213.01h2138.13"/>
	
		<linearGradient id="SVGID_2_" gradientUnits="userSpaceOnUse" x1="6218.0327" y1="618.7849" x2="8353.8604" y2="618.7849" gradientTransform="matrix(-1 0 0 1 8563.5527 0)">
		<stop  offset="0" style="stop-color:#00B5D7"/>
		<stop  offset="1" style="stop-color:#029FBC"/>
	</linearGradient>
	<path class="st1" d="M2342.21,3.2l3.31,1194.22c0,0-118.19-165.81-406.07-151.49c-282.04,14.03-281.75,182.18-619.67,91.73
		c-396.18-106.05-450.48,101.41-662.86,11.38c-277-117.43-441.63,85.34-441.63,85.34V3.2h-5.61H2342.21H209.69"/>
</g>
</svg>
