<?xml version="1.0" encoding="utf-8"?>
<!-- Generator: Adobe Illustrator 23.0.1, SVG Export Plug-In . SVG Version: 6.00 Build 0)  -->
<svg version="1.1" id="Layer_1" xmlns="http://www.w3.org/2000/svg" xmlns:xlink="http://www.w3.org/1999/xlink" x="0px" y="0px"
	 viewBox="0 0 2141 1440" style="enable-background:new 0 0 2141 1440;" xml:space="preserve">
<style type="text/css">
	.st0{opacity:0.6;fill:url(#SVGID_1_);enable-background:new    ;}
	.st1{opacity:0.39;fill:url(#SVGID_2_);enable-background:new    ;}
</style>
<g>
	
		<linearGradient id="SVGID_1_" gradientUnits="userSpaceOnUse" x1="9.961181e-03" y1="641.7515" x2="2144.1399" y2="641.7515" gradientTransform="matrix(1 0 0 -1 0 1442)">
		<stop  offset="0" style="stop-color:#00B5D7"/>
		<stop  offset="1" style="stop-color:#029FBC"/>
	</linearGradient>
	<path class="st0" d="M3.33,161.49L0.01,1355.71c0,0,90.11,105.22,420.5-49.18c184.97-86.45,243.11,143.8,562.1,132.04
		c193.89-7.15,211.86-125.95,413.35-161.38c226.44-39.82,285.41,95.55,509.63,152.96c155.54,39.82,232.93-74.43,232.93-74.43V161.49
		h5.63H3.33h2140.81"/>
	
		<linearGradient id="SVGID_2_" gradientUnits="userSpaceOnUse" x1="8067.0396" y1="824.2101" x2="10205.5527" y2="824.2101" gradientTransform="matrix(-1 0 0 -1 10205.5527 1442)">
		<stop  offset="0" style="stop-color:#00B5D7"/>
		<stop  offset="1" style="stop-color:#029FBC"/>
	</linearGradient>
	<path class="st1" d="M2135.2,2.2l3.31,1194.22c0,0-118.34-165.81-406.58-151.49c-282.39,14.03-282.1,182.18-620.45,91.73
		c-396.68-106.05-451.04,101.41-663.69,11.38c-277.35-117.43-442.18,85.34-442.18,85.34V2.2H0H2135.2H0.01"/>
</g>
</svg>
