<?xml version="1.0" encoding="utf-8"?>
<!-- Generator: Adobe Illustrator 23.0.1, SVG Export Plug-In . SVG Version: 6.00 Build 0)  -->
<svg version="1.1" id="Layer_1" xmlns="http://www.w3.org/2000/svg" xmlns:xlink="http://www.w3.org/1999/xlink" x="0px" y="0px"
	 viewBox="0 0 2141 1440" style="enable-background:new 0 0 2141 1440;" xml:space="preserve">
<style type="text/css">
	.st0{opacity:0.39;fill:url(#SVGID_1_);enable-background:new    ;}
	.st1{opacity:0.6;fill:url(#SVGID_2_);enable-background:new    ;}
</style>
<g>
	
		<linearGradient id="SVGID_1_" gradientUnits="userSpaceOnUse" x1="8064.5527" y1="613.59" x2="10205.5527" y2="613.59" gradientTransform="matrix(-1 0 0 1 10205.5527 2)">
		<stop  offset="0" style="stop-color:#00B5D7"/>
		<stop  offset="1" style="stop-color:#029FBC"/>
	</linearGradient>
	<path class="st0" d="M2141,0v1196.9c0,0-126.4-168.5-414.7-154.2c-282.4,14-282.1,182.2-620.5,91.7
		c-396.7-106.1-451,101.4-663.7,11.4C164.8,1028.4,0,1231.2,0,1231.2V0"/>
	
		<linearGradient id="SVGID_2_" gradientUnits="userSpaceOnUse" x1="0" y1="713.9699" x2="2141" y2="713.9699" gradientTransform="matrix(1 0 0 1 0 2)">
		<stop  offset="0" style="stop-color:#00B5D7"/>
		<stop  offset="1" style="stop-color:#029FBC"/>
	</linearGradient>
	<path class="st1" d="M0,0v1348.6c0,0,86.7,105.2,417.1-49.2c185-86.4,243.1,143.8,562.1,132c193.9-7.2,211.9-125.9,413.3-161.4
		c226.4-39.8,285.4,95.6,509.6,153c155.5,39.8,238.8-83.4,238.8-83.4V0"/>
</g>
</svg>
