<?xml version="1.0" encoding="utf-8"?>
<!-- Generator: Adobe Illustrator 23.0.1, SVG Export Plug-In . SVG Version: 6.00 Build 0)  -->
<svg version="1.1" id="Layer_1" xmlns="http://www.w3.org/2000/svg" xmlns:xlink="http://www.w3.org/1999/xlink" x="0px" y="0px"
	 viewBox="0 0 1080 1080" style="enable-background:new 0 0 1080 1080;" xml:space="preserve">
<style type="text/css">
	.st0{fill:#D1E0FD;}
	.st1{fill:none;stroke:#D1E0FD;stroke-width:4;stroke-miterlimit:10;}
	.st2{fill:none;stroke:#D1E0FD;stroke-width:5;stroke-miterlimit:10;}
	.st3{fill:#A4C4FA;}
	.st4{fill:none;stroke:#4B86F7;stroke-width:7;stroke-miterlimit:10;}
	.st5{fill:none;}
	.st6{fill:#4B86F7;stroke:#4B86F7;stroke-width:5;stroke-miterlimit:10;}
	.st7{font-family:'ProductSans-Bold';}
	.st8{font-size:72px;}
	.st9{letter-spacing:1;}
</style>
<g id="Layer_7">
	<g>
		<path class="st0" d="M499.1,310.1v-9.3c-6.2,3.4-12,6.6-17.8,9.3H499.1z"/>
		<path class="st0" d="M580.1,310.1h38.6v87.4h25.1v-60.4v-43.7h14.9c-25.1-17.5-51.7-23.8-78.6-21.6V310.1z"/>
		<path class="st0" d="M406,364.8h0.6v10.5l2.7,28.7H440v33.4h25.7V316.2c-14.8,4.4-32.3,5.9-59.6,2.8L406,364.8z"/>
		<path class="st0" d="M724.8,477.6h37.6v-56.9V387l33.8,33.8v-24.4l48.8-48.8c-35.7-3.5-105.9-12.4-150.1-31.3v21h29.9v100.3
			L724.8,477.6L724.8,477.6z"/>
		<path class="st0" d="M154.6,437.4h34.1v-26V404V297.7c-43.7,2.6-79.5,10-98.4,20.8c-40.5,23.1-63.6,52.1-13.5,82.9
			s55.9,54.7,27,75.6s-76.4,40.1-55.6,59.4c17.7,16.4,27.3,23,106.4,27V437.4z"/>
		<path class="st0" d="M932,521.2v132.1c3.2-2.3,6.2-4.7,8.8-6.9c42.4-36.6,23.1-79.1,0-106.1C935.6,534.3,932.8,527.9,932,521.2z"
			/>
		<path class="st0" d="M1012.1,366.7c-49.7-18.4-136.4-17.5-144.1-17.4l-0.8,16.1h42.1v123.4H932v24.6c2.4-21.5,24.2-45.6,58.9-69.6
			C1041.1,409.1,1064.2,386,1012.1,366.7z"/>
		<path class="st0" d="M724.8,695.9h-72.3H553c25.6,28.3,53,44.3,117.8,42.3c56-1.8,123.7-20.1,178.9-42.3H724.8z"/>
	</g>
	<g id="Layer_4_1_">
		<polyline class="st1" points="222.7,695.9 222.7,393.7 299.9,342.3 299.9,270.3 406.6,218.9 406.6,364.8 		"/>
		<rect x="329.4" y="460.6" class="st1" width="21.9" height="34.1"/>
		<rect x="329.4" y="515.9" class="st1" width="21.9" height="34.1"/>
		<rect x="279.3" y="461.6" class="st1" width="21.9" height="34.1"/>
		<rect x="279.3" y="516.9" class="st1" width="21.9" height="34.1"/>
		<rect x="279.3" y="572.2" class="st1" width="21.9" height="34.1"/>
		<rect x="279.3" y="627.5" class="st1" width="21.9" height="34.1"/>
		<polyline class="st1" points="724.8,477.6 762.4,477.6 762.4,522 762.4,337.1 762.4,387 853.5,478.1 853.5,695.9 805.8,695.9 
			805.7,430.3 853.5,478.1 853.5,488.9 932,488.9 932,695.9 		"/>
		<polyline class="st1" points="909.3,488.9 909.3,365.4 869.4,365.4 869.4,488.9 869.4,323 796.1,396.3 796.1,420.7 831.8,456.4 
			831.8,360.6 		"/>
		<polyline class="st1" points="222.7,437.4 154.6,437.4 154.6,695.9 154.6,661.1 222.7,661.1 222.7,627.7 154.6,627.7 154.6,589.2 
			222.7,589.2 222.7,560.9 154.6,560.9 154.6,515.9 222.7,515.9 222.7,479.3 154.6,478.6 		"/>
		<polyline class="st1" points="188.6,437.4 188.6,270.3 299.9,270.3 		"/>
		<line class="st1" x1="230.4" y1="293.4" x2="230.4" y2="388.6"/>
		<line class="st1" x1="269" y1="293.4" x2="269" y2="362.9"/>
		<line class="st1" x1="384.7" y1="270.3" x2="384.7" y2="364.8"/>
		<g>
			<path class="st0" d="M893,586c-28.6,0-45,98.6,0,98.6S921.7,586,893,586z"/>
			<line class="st2" x1="893" y1="652.8" x2="893" y2="695"/>
		</g>
		<g>
			<path class="st0" d="M236.4,583.5c-28.6,0-45,98.6,0,98.6S265,583.5,236.4,583.5z"/>
			<line class="st2" x1="236.4" y1="650.3" x2="236.4" y2="692.5"/>
		</g>
	</g>
	<g id="Layer_5_1_">
		<polyline class="st3" points="615.5,667.6 468.9,691.7 615.5,691.7 		"/>
		<polyline class="st3" points="368.6,374.7 405.9,368.6 368.6,368.6 		"/>
		<polyline class="st3" points="502.7,256.5 580.1,243.7 502.7,243.7 		"/>
		<polyline class="st3" points="398,491.1 462.5,480.5 398,480.5 		"/>
		<polyline class="st3" points="758.6,685.7 722.3,691.7 758.6,691.7 		"/>
		<polyline class="st3" points="362.4,687.3 333.3,692.1 362.4,692.1 		"/>
		<path class="st3" d="M851.4,242.9c-11.8,0-23,2.1-33,5.7c-9.8-18.1-25.2-29.7-42.5-29.7c-29.7,0-53.7,34.3-53.7,76.6h204.4
			C923.7,266,891.2,242.9,851.4,242.9z"/>
		<path class="st3" d="M286,510.8c-7.5,0-14.6,1.3-20.9,3.6c-6.2-11.4-15.9-18.8-26.8-18.8c-18.7,0-33.9,21.7-33.9,48.4h129.2
			C331.7,525.5,311.2,510.8,286,510.8z"/>
	</g>
	<g id="Layer_3_1_">
		<line class="st4" x1="125.7" y1="695.9" x2="954.3" y2="695.9"/>
		<polyline class="st4" points="618.7,695.9 618.7,307.6 582.7,307.6 582.7,239.4 499.1,239.4 499.1,310.1 465.7,310.1 465.7,695.9 
					"/>
		<rect x="528.7" y="270.3" class="st4" width="23.1" height="23.1"/>
		<rect x="528.7" y="303.7" class="st4" width="23.1" height="23.1"/>
		<rect x="528.7" y="337.1" class="st4" width="23.1" height="23.1"/>
		<rect x="528.7" y="370.6" class="st4" width="23.1" height="23.1"/>
		<rect x="528.7" y="404" class="st4" width="23.1" height="23.1"/>
		<rect x="528.7" y="437.4" class="st4" width="23.1" height="23.1"/>
		<rect x="528.7" y="470.9" class="st4" width="23.1" height="23.1"/>
		<rect x="528.7" y="504.3" class="st4" width="23.1" height="23.1"/>
		<rect x="528.7" y="537.7" class="st4" width="23.1" height="23.1"/>
		<rect x="528.7" y="571.1" class="st4" width="23.1" height="23.1"/>
		<rect x="528.7" y="604.6" class="st4" width="23.1" height="23.1"/>
		<rect x="528.7" y="638" class="st4" width="23.1" height="23.1"/>
		<rect x="495.3" y="337.1" class="st4" width="23.1" height="23.1"/>
		<rect x="495.3" y="370.6" class="st4" width="23.1" height="23.1"/>
		<rect x="495.3" y="404" class="st4" width="23.1" height="23.1"/>
		<rect x="495.3" y="437.4" class="st4" width="23.1" height="23.1"/>
		<rect x="495.3" y="470.9" class="st4" width="23.1" height="23.1"/>
		<rect x="495.3" y="504.3" class="st4" width="23.1" height="23.1"/>
		<rect x="495.3" y="537.7" class="st4" width="23.1" height="23.1"/>
		<rect x="495.3" y="571.1" class="st4" width="23.1" height="23.1"/>
		<rect x="495.3" y="604.6" class="st4" width="23.1" height="23.1"/>
		<rect x="495.3" y="638" class="st4" width="23.1" height="23.1"/>
		<rect x="428.4" y="504.3" class="st4" width="23.1" height="23.1"/>
		<rect x="428.4" y="537.7" class="st4" width="23.1" height="23.1"/>
		<rect x="428.4" y="571.1" class="st4" width="23.1" height="23.1"/>
		<rect x="428.4" y="604.6" class="st4" width="23.1" height="23.1"/>
		<rect x="428.4" y="638" class="st4" width="23.1" height="23.1"/>
		<rect x="632.3" y="504.3" class="st4" width="23.1" height="23.1"/>
		<rect x="632.3" y="537.7" class="st4" width="23.1" height="23.1"/>
		<rect x="632.3" y="571.1" class="st4" width="23.1" height="23.1"/>
		<rect x="632.3" y="604.6" class="st4" width="23.1" height="23.1"/>
		<rect x="632.3" y="638" class="st4" width="23.1" height="23.1"/>
		<rect x="665" y="571.1" class="st4" width="23.1" height="23.1"/>
		<rect x="665" y="604.6" class="st4" width="23.1" height="23.1"/>
		<rect x="665" y="638" class="st4" width="23.1" height="23.1"/>
		<rect x="395" y="571.1" class="st4" width="23.1" height="23.1"/>
		<rect x="395" y="604.6" class="st4" width="23.1" height="23.1"/>
		<rect x="395" y="638" class="st4" width="23.1" height="23.1"/>
		<rect x="562.4" y="337.1" class="st4" width="23.1" height="23.1"/>
		<rect x="562.4" y="370.6" class="st4" width="23.1" height="23.1"/>
		<rect x="562.4" y="404" class="st4" width="23.1" height="23.1"/>
		<rect x="562.4" y="437.4" class="st4" width="23.1" height="23.1"/>
		<rect x="562.4" y="470.9" class="st4" width="23.1" height="23.1"/>
		<rect x="562.4" y="504.3" class="st4" width="23.1" height="23.1"/>
		<rect x="562.4" y="537.7" class="st4" width="23.1" height="23.1"/>
		<rect x="562.4" y="571.1" class="st4" width="23.1" height="23.1"/>
		<rect x="562.4" y="604.6" class="st4" width="23.1" height="23.1"/>
		<rect x="562.4" y="638" class="st4" width="23.1" height="23.1"/>
		<polyline class="st4" points="365.1,695.9 365.1,364.8 406.6,364.8 406.6,404 440,404 440,437.4 465.7,437.4 465.7,477 395,477 
			395,549.3 365.1,549.3 365.1,571.1 329.4,571.1 329.4,695.9 719,695.9 719,549.3 688.1,549.3 688.1,477 618.7,477 618.7,398.5 
			643.9,398.5 643.9,293.4 695.9,293.4 695.9,337.1 724.8,337.1 724.8,504.3 762.4,504.3 762.4,695.9 		"/>
	</g>
</g>
<g>
	<rect y="785.7" class="st5" width="1080" height="141.4"/>
	<text transform="matrix(1 0 0 1 142.5293 837.2646)"><tspan x="0" y="0" class="st6 st7 st8 st9">NO MORE PROPERTIES </tspan><tspan x="198" y="86.4" class="st6 st7 st8 st9">AVAILABLE</tspan></text>
</g>
</svg>
