<?xml version="1.0" encoding="iso-8859-1"?>
<!-- Generator: Adobe Illustrator 19.0.0, SVG Export Plug-In . SVG Version: 6.00 Build 0)  -->
<svg version="1.1" id="Capa_1" xmlns="http://www.w3.org/2000/svg" xmlns:xlink="http://www.w3.org/1999/xlink" x="0px" y="0px"
	 viewBox="0 0 496.485 496.485" style="enable-background:new 0 0 496.485 496.485;" xml:space="preserve">
<g>
	<circle style="fill:#E1E6E9;" cx="248.242" cy="216.436" r="216.436"/>
	
		<rect x="99.957" y="96.201" transform="matrix(-0.9463 0.3234 -0.3234 -0.9463 288.1563 199.5941)" style="fill:#E1E6E9;" width="55.076" height="55.076"/>
</g>
<path style="fill:#193651;" d="M110.158,166.012c-3.103,0-5.43-1.552-6.206-4.655l-17.842-52.752
	c-1.552-3.879,0.776-7.758,3.879-8.533l52.752-17.842c3.879-1.552,7.758,0.776,8.533,3.879l17.842,52.752
	c1.552,3.879-0.776,7.758-3.879,8.533l-52.752,17.842C111.709,166.012,110.933,166.012,110.158,166.012z M100.848,110.933
	l13.188,39.564l39.564-13.188l-13.188-39.564L100.848,110.933z"/>
<rect x="131.136" y="146.795" transform="matrix(-0.9463 0.3234 -0.3234 -0.9463 378.8778 370.278)" style="fill:#F16051;" width="55.081" height="139.641"/>
<path style="fill:#193651;" d="M155.152,298.667c-3.103,0-5.43-1.552-6.206-4.655l-44.994-132.655c-0.776-1.552-0.776-3.879,0-5.43
	c0.776-1.552,2.327-3.103,3.879-3.103l52.752-17.842c3.879-1.552,7.758,0.776,8.533,3.879l44.994,132.655
	c0.776,1.552,0.776,3.879,0,5.43c-0.776,1.552-2.327,3.103-3.879,3.103l-52.752,17.842
	C156.703,297.891,155.927,298.667,155.152,298.667z M118.691,163.685l41.115,119.467l39.564-13.188l-41.115-119.467L118.691,163.685
	z"/>
<rect x="113.846" y="208.903" transform="matrix(-0.3234 -0.9463 0.9463 -0.3234 5.7052 437.3999)" style="fill:#FFFFFF;" width="90.758" height="15.514"/>
<path style="fill:#193651;" d="M93.867,218.764l-29.479-87.661c-0.776-1.552-0.776-3.879,0-5.43
	c0.776-1.552,2.327-3.103,3.879-3.103l26.376-9.309c3.879-1.552,7.758,0.776,8.533,3.879c1.552,3.879-0.776,7.758-3.879,8.533
	l-20.17,6.982l27.927,81.455c1.552,3.879-0.776,7.758-3.879,8.533C99.297,224.194,95.418,221.867,93.867,218.764z"/>
<path style="fill:#FFFFFF;" d="M228.848,287.806l0.776-135.758c0-28.703,9.309-43.442,27.152-66.715
	c17.067,23.273,26.376,38.012,26.376,66.715l-0.776,135.758H228.848z"/>
<path style="fill:#193651;" d="M282.376,294.788L282.376,294.788h-53.527c-3.879,0-6.982-3.103-6.982-6.982l0.776-135.758
	c0-31.03,10.861-47.321,28.703-70.594c1.552-1.552,3.103-2.327,5.43-2.327c1.552,0,3.879,0.776,5.43,2.327
	c17.067,23.273,27.927,39.564,27.927,71.37l-0.776,135.758c0,1.552-0.776,3.879-2.327,4.655
	C285.479,294.012,283.927,294.788,282.376,294.788z M235.055,280.824h40.339l0.776-128.776c0-23.273-6.206-36.461-20.17-55.855
	c-13.964,19.394-20.17,31.806-20.17,55.079L235.055,280.824z"/>
<path style="fill:#2EA2DB;" d="M282.376,141.188c-2.327-21.721-10.861-35.685-26.376-55.855
	c-14.739,20.17-24.048,33.358-26.376,55.855"/>
<path style="fill:#193651;" d="M282.376,147.394c-3.103,0-6.206-2.327-6.982-6.206c-1.552-17.842-8.533-30.255-19.394-44.994
	c-10.861,14.739-17.842,27.152-19.394,44.994c0,3.879-3.879,6.206-7.758,6.206c-3.879,0-6.206-3.879-6.206-7.758
	c2.327-24.048,12.412-38.788,27.927-58.958c1.552-1.552,3.103-2.327,5.43-2.327c1.552,0,3.879,0.776,5.43,2.327
	c14.739,20.17,24.824,34.909,27.152,58.958C289.358,144.291,286.255,147.394,282.376,147.394L282.376,147.394z"/>
<path style="fill:#193651;" d="M256,91.539L256,91.539c-3.879,0-6.982-3.103-6.982-6.982V76.8c0-3.879,3.103-6.982,6.982-6.982l0,0
	c3.879,0,6.982,3.103,6.982,6.982v7.758C262.982,88.436,259.879,91.539,256,91.539z"/>
<rect x="314.259" y="137.226" transform="matrix(-0.9567 -0.2911 0.2911 -0.9567 607.2076 544.7639)" style="fill:#FFFFFF;" width="59.734" height="179.977"/>
<path style="fill:#193651;" d="M346.764,328.921c-0.776,0-1.552,0-2.327,0l-57.406-17.842c-3.879-0.776-5.43-4.655-4.655-8.533
	l52.752-172.218c0.776-1.552,1.552-3.103,3.103-3.879c1.552-0.776,3.103-0.776,5.43-0.776l57.406,17.842
	c3.879,0.776,5.43,4.655,4.655,8.533L352.97,324.267c-0.776,1.552-1.552,3.103-3.103,3.879
	C349.091,328.921,347.539,328.921,346.764,328.921z M297.891,300.218l44.218,13.188l48.873-159.03l-44.218-13.188L297.891,300.218z"
	/>
<rect x="278.814" y="217.911" transform="matrix(0.2914 -0.9566 0.9566 0.2914 25.9166 490.9782)" style="fill:#4FBF9F;" width="131.103" height="20.17"/>
<path style="fill:#F16051;" d="M399.515,97.745l-28.703-8.533c-7.758-2.327-16.291,2.327-18.618,10.085l-10.085,33.358
	l57.406,17.842l10.085-33.358C411.927,109.382,407.273,100.848,399.515,97.745z"/>
<path style="fill:#193651;" d="M399.515,156.703c-0.776,0-1.552,0-2.327,0l-57.406-17.842c-1.552-0.776-3.103-1.552-3.879-3.103
	c-0.776-1.552-0.776-3.103-0.776-5.43l10.085-33.358c3.103-9.309,11.636-15.515,20.945-15.515c2.327,0,4.655,0,6.206,0.776
	l28.703,8.533c5.43,1.552,10.085,5.43,13.188,10.861c3.103,5.43,3.103,10.861,1.552,17.067l-10.085,33.358
	C404.945,155.152,401.842,156.703,399.515,156.703z M350.642,128l44.218,13.188l7.758-26.376c0.776-2.327,0.776-4.655-0.776-6.206
	c-0.776-2.327-3.103-3.103-4.655-3.879l-28.703-8.533c-4.655-1.552-9.309,1.552-10.861,5.43L350.642,128z"/>
<rect x="117.139" y="456.921" style="fill:#E1E6E9;" width="261.43" height="33.358"/>
<path style="fill:#193651;" d="M379.345,496.485H117.139c-3.879,0-6.982-3.103-6.982-6.982v-33.358c0-3.879,3.103-6.982,6.982-6.982
	h261.43c3.879,0,6.982,3.103,6.982,6.982v33.358C385.552,493.382,382.448,496.485,379.345,496.485z M124.121,483.297h248.242
	v-19.394H124.121V483.297z"/>
<polygon style="fill:#FFFFFF;" points="363.055,456.921 133.43,456.921 117.139,257.552 379.345,257.552 "/>
<path style="fill:#193651;" d="M363.055,463.127H133.43c-3.879,0-6.206-2.327-6.982-6.206l-16.291-199.37
	c0-1.552,0.776-3.879,1.552-5.43c1.552-1.552,3.103-2.327,4.655-2.327h261.43c1.552,0,3.879,0.776,4.655,2.327
	c1.552,1.552,1.552,3.103,1.552,5.43l-16.291,199.37C369.261,460.8,366.158,463.127,363.055,463.127z M139.636,449.939h217.212
	l14.739-185.406H124.897L139.636,449.939z"/>
<polygon style="fill:#FDBF5E;" points="158.255,429.77 146.618,284.703 349.867,284.703 338.23,429.77 "/>
<g>
	<rect x="204.8" y="350.642" style="fill:#193651;" width="13.188" height="13.188"/>
	<rect x="241.261" y="350.642" style="fill:#193651;" width="13.188" height="13.188"/>
</g>
<rect x="277.721" y="350.642" style="fill:#193651;" width="13.188" height="13.188"/>
<g>
</g>
<g>
</g>
<g>
</g>
<g>
</g>
<g>
</g>
<g>
</g>
<g>
</g>
<g>
</g>
<g>
</g>
<g>
</g>
<g>
</g>
<g>
</g>
<g>
</g>
<g>
</g>
<g>
</g>
</svg>
