<?xml version="1.0" encoding="utf-8"?>
<!-- Generator: Adobe Illustrator 23.0.1, SVG Export Plug-In . SVG Version: 6.00 Build 0)  -->
<svg version="1.1" id="Layer_1" xmlns="http://www.w3.org/2000/svg" xmlns:xlink="http://www.w3.org/1999/xlink" x="0px" y="0px"
	 viewBox="0 0 1080 720" style="enable-background:new 0 0 1080 720;" xml:space="preserve">
<style type="text/css">
	.st0{fill:#D1E0FD;}
	.st1{fill:#FFFFFF;}
	.st2{fill:none;stroke:#D1E0FD;stroke-width:4;stroke-miterlimit:10;}
	.st3{fill:none;stroke:#D1E0FD;stroke-width:5;stroke-miterlimit:10;}
	.st4{fill:#A4C4FA;}
	.st5{fill:#4B86F7;}
</style>
<g id="Layer_7">
	<path class="st0" d="M705.2,166.8c0,0-17.6,39.1-106.8,14.3S554.4,42,404,126.8s18.4,206.7-71.9,257.6S84.7,489,73.2,530.5
		s415.9,186.1,434.1,121.1c18.1-65,77.2-43.5,165.9-93.5c88.7-50,115.7,89.5,183.6,51.2s191.7-132,48-172.1S729.9,272.9,792.3,237.7
		S775.9,96.3,700.8,75.3S719.3,116,705.2,166.8z"/>
</g>
<g id="Layer_6">
	<g id="Layer_5">
		<polygon class="st1" points="863.5,387.9 863.5,355.1 851.3,355.1 851.3,337.9 699,337.9 699,355.1 686.1,355.1 686.1,387.9 
			677.5,387.9 677.5,327.7 584.1,327.7 584.1,154.8 590.1,153.1 584.1,43.6 584.1,36.1 440.7,153.1 431.1,153.1 431.1,327.7 
			431.1,348.1 431.1,374.9 407.1,374.9 407.1,276.7 128.4,276.7 128.4,717.1 357.4,717.1 357.4,723 671.5,723 904.7,723 
			904.7,387.9 		"/>
	</g>
	<g id="Layer_4">
		<polyline class="st2" points="408.1,371.9 408.1,277.7 128.4,277.7 128.4,720 128.4,277.7 		"/>
		<rect x="157.4" y="311.4" class="st0" width="217" height="36.6"/>
		<rect x="157.4" y="369.6" class="st0" width="200" height="36.6"/>
		<rect x="157.4" y="427.8" class="st0" width="197" height="36.6"/>
		<rect x="157.4" y="486" class="st0" width="197" height="36.6"/>
		<rect x="157.4" y="544.1" class="st0" width="197" height="36.6"/>
		<polygon class="st0" points="300.1,717 229.7,717 228.2,608.2 298.6,608.2 		"/>
		<rect x="330" y="608.2" class="st0" width="24.4" height="87.7"/>
		<rect x="157.4" y="608.2" class="st0" width="40.5" height="87.7"/>
		<path class="st0" d="M86.2,608.1c-28.6,0-45,98.6,0,98.6S114.9,608.1,86.2,608.1z"/>
		<line class="st3" x1="86.2" y1="674.9" x2="86.2" y2="717.1"/>
		<path class="st0" d="M958,608.1c-28.6,0-45,98.6,0,98.6S986.6,608.1,958,608.1z"/>
		<line class="st3" x1="958" y1="674.9" x2="958" y2="717.1"/>
		<polyline class="st2" points="675.2,387.9 686.1,387.9 904.7,387.9 904.7,720 		"/>
		<polyline class="st2" points="686.1,387.9 686.1,355.1 863.5,355.1 863.5,384.7 		"/>
		<polyline class="st2" points="699,355.1 699,337.9 851.3,337.9 851.3,355.1 		"/>
		<line class="st2" x1="675.2" y1="441.3" x2="904.7" y2="441.3"/>
		<rect x="775.1" y="617.2" class="st2" width="57.2" height="102.8"/>
		<line class="st2" x1="762.2" y1="617.2" x2="775.1" y2="617.2"/>
		<rect x="823.7" y="473.4" class="st0" width="52.3" height="117.4"/>
		<rect x="671.5" y="473.3" class="st0" width="52.3" height="117.4"/>
		<polygon class="st0" points="746.5,473.4 746.5,584.4 762.2,584.4 762.2,590.9 798.8,590.9 798.8,473.4 		"/>
	</g>
	<g id="Layer_3">
		<polyline class="st4" points="671.5,333.7 540.4,348.1 540.4,327.7 671.5,333.7 		"/>
		<polyline class="st4" points="762.2,587 595.9,605.2 595.9,584.4 762.2,587 		"/>
		<polyline class="st4" points="546.4,699 437.1,717 546.4,717 546.4,690.7 		"/>
		<path class="st4" d="M394.2,294.1c0,0,1.5-27,42.9-26s0,0,0,0v65.7H314.5C314.5,333.7,341.9,266.1,394.2,294.1z"/>
		<path class="st4" d="M748.4,209.7c-11.8,0-23,2.1-33,5.7c-9.8-18.1-25.2-29.7-42.5-29.7c-29.7,0-53.7,34.3-53.7,76.6h204.4
			C820.7,232.8,788.2,209.7,748.4,209.7z"/>
		<polyline class="st4" points="431.1,374.6 354,383.1 354,373.4 431.1,374.6 		"/>
		<polyline class="st4" points="431.1,418.4 354,426.9 354,417.2 431.1,418.4 		"/>
	</g>
	<g>
		<g>
			<g>
				<path class="st5" d="M351.5,368.9h-0.1V717H79.5l-5,6h906.4l5-6H763.7V581h-86.1V327.7h-87.4V31.5l-43.7,33.4l0,0l-26.6,20.3
					l-88.7,67.8v215.8 M757.7,587v130h-156V587 M671.5,581h-20.1v-28.9h-32.1V581h-23.6v44.2h-30.4v32.1h30.4V717h-49.3V333.7h125.1
					L671.5,581L671.5,581z M519,93.4l21.4-16.4V717h-46.7V112.8L519,93.4z M584.1,43.6v284.1h-37.7V72.5L584.1,43.6z M487.7,117.4
					V717h-50.5v-561L487.7,117.4z M431.1,374.9v38.4h-73.7v-38.4H431.1z M357.4,641.3h31.5v-32.1h-31.5V492.7h31.5v-32.1h-31.5
					v-41.4h73.7v95.7h-31.9v32.1h31.9V717h-73.7L357.4,641.3L357.4,641.3z"/>
				<rect x="565.2" y="371.9" class="st5" width="32.1" height="32.1"/>
				<rect x="619.2" y="437.4" class="st5" width="32.1" height="32.1"/>
				<rect x="565.2" y="498.9" class="st5" width="32.1" height="32.1"/>
				<rect x="623.1" y="605.2" class="st5" width="32.1" height="32.1"/>
				<rect x="663" y="666.9" class="st5" width="32.1" height="32.1"/>
				<rect x="701.5" y="605.2" class="st5" width="32.1" height="32.1"/>
			</g>
		</g>
	</g>
</g>
</svg>
