<?xml version="1.0" encoding="utf-8"?>
<!-- Generator: Adobe Illustrator 23.0.1, SVG Export Plug-In . SVG Version: 6.00 Build 0)  -->
<svg version="1.1" id="Layer_1" xmlns="http://www.w3.org/2000/svg" xmlns:xlink="http://www.w3.org/1999/xlink" x="0px" y="0px"
	 viewBox="0 0 1080 720" style="enable-background:new 0 0 1080 720;" xml:space="preserve">
<style type="text/css">
	.st0{fill:#D1E0FD;}
	.st1{fill:#FFFFFF;}
	.st2{fill:#A4C4FA;}
	.st3{fill:#4B86F7;}
</style>
<g id="Layer_6_1_">
	<path class="st0" d="M611,243.6c0,0,9.6,60.6-75.2,60.6s-262.3-99.4-262.3,0S234.9,430,117.3,430s-113.8,164.7,0,164.7
		s137.9,111.1,137.9,111.1H802c0,0-1-96.7,120-96.7s106.5-149.5,0-149.5s-70.9-99.4,0-99.4s-42.4-193.1-141-113.6
		s-108.7,0.6-54-43.5s-357.1-66.9-274.1,0S539.6,186.1,611,243.6z"/>
</g>
<g id="Layer_8">
	<g>
		<polyline class="st1" points="938,720 938,261.2 911.1,261.2 911.1,229.5 860.8,229.5 860.8,261.2 840.6,265.2 836.6,386.7 
			790.4,386.7 788.4,429.1 717.7,429.1 714.2,333 691.1,329.4 687.3,301.4 665.2,297.7 637.9,295.7 616.1,322.5 622.2,218.4 
			482.8,119.5 482.8,295.7 414.6,291.2 414.6,459.1 398.9,461.8 394.9,226.6 367.9,222.4 367.9,164.9 268.6,160.9 268.6,224.6 
			240.6,229.5 240.6,435.8 171.2,440.5 171.2,476.6 157.7,482.8 159.7,660.2 157.7,720 938,720 		"/>
	</g>
	<g id="Layer_7_2_">
	</g>
	<g id="Layer_5_1_">
		<g>
			<path class="st0" d="M371.9,160.9H268.6v63.6h-28v211.2h-69.4v40.9h-13.5v170.1c-4.1-20.2-13.9-37.6-25.9-37.6
				c-28.1,0-44.3,94.9-2.5,98.5v10.5h5v-10.5c12.8-1.1,20.2-10.8,23.4-23.7v36h4V480.6h9.5h73.4h102.1v-4h-10.1v-18.4h-33.8v18.4
				h-23.5V263.2h-4v213.4h-30.7v-38.9v-2V228.6h28V165h95.3v61.7h27v235.1h4V222.6h-27L371.9,160.9L371.9,160.9z M175.2,476.6v-36.9
				h65.4v36.9H175.2z"/>
			<rect x="358.3" y="263.2" class="st0" width="4" height="211.6"/>
			<rect x="302.4" y="263.2" class="st0" width="33.8" height="20.3"/>
			<rect x="302.4" y="302.2" class="st0" width="33.8" height="20.3"/>
			<rect x="302.9" y="341.2" class="st0" width="33.8" height="20.3"/>
			<rect x="302.9" y="380.2" class="st0" width="33.8" height="20.3"/>
			<rect x="302.9" y="419.2" class="st0" width="33.8" height="20.3"/>
			<rect x="302.4" y="198.3" class="st0" width="34.2" height="48.2"/>
			<polygon class="st0" points="240.6,716.8 244.6,716.8 244.6,515.9 299.5,515.9 299.5,511.9 240.6,511.9 			"/>
			<rect x="271.1" y="556.8" class="st0" width="28.5" height="4"/>
			<rect x="271.1" y="597.3" class="st0" width="28.5" height="4"/>
			<rect x="271.1" y="637.4" class="st0" width="28.5" height="4"/>
			<rect x="271.1" y="672" class="st0" width="28.5" height="4"/>
			<path class="st0" d="M182.1,670.6h22V511.9h-22V670.6z M186.1,515.9h14v150.8h-14V515.9z"/>
			<path class="st0" d="M211.4,670.6h22V511.9h-22V670.6z M215.4,515.9h14v150.8h-14V515.9z"/>
			<path class="st0" d="M915.1,261.2v-35.7h-58.3v35.7h-20.3v121.5h-50.1v42.4h-68.7v4h118.9V720h4V265.2H934V720h4V261.2H915.1z
				 M790.4,425.1v-38.4h46.1v38.4H790.4z M860.8,229.5h50.3v31.7h-50.3V229.5z"/>
			<path class="st0" d="M860.9,349.9H915v-54.1h-54.1V349.9z M864.9,299.7H911v46.1h-46.1V299.7z"/>
			<path class="st0" d="M860.9,354v54.1h25.2V354H860.9L860.9,354z M882.2,404.1H865V358h17.2V404.1z"/>
			<path class="st0" d="M889.9,408.1h25.2V354h-25.2V408.1z M893.9,358h17.2v46.1h-17.2V358z"/>
			<path class="st0" d="M860.9,466.3H915v-54.1h-54.1V466.3z M864.9,416.1H911v46.1h-46.1V416.1z"/>
			<path class="st0" d="M860.9,470.4v54.1h25.2v-54.1H860.9z M882.2,520.5H865v-46.1h17.2V520.5z"/>
			<path class="st0" d="M889.9,524.5h25.2v-54.1h-25.2V524.5z M893.9,474.4h17.2v46.1h-17.2V474.4z"/>
			<path class="st0" d="M860.9,582.7H915v-54.1h-54.1V582.7z M864.9,532.5H911v46.1h-46.1V532.5z"/>
			<path class="st0" d="M889.9,622.7c-1.2-1.9-2.4-3.5-3.7-5v-30.9H861v30.9c-19.2,21.8-24.9,88.7,10.1,91.7V720h5v-10.5
				c7.8-0.7,13.6-4.5,17.6-10.3h21.4V645h-16.4c-0.3-1.4-0.7-2.7-1-4h17.4v-54.1h-25.2L889.9,622.7L889.9,622.7z M882.2,590.8V614
				c-2.7-2-5.6-3.1-8.6-3.1s-5.9,1.1-8.6,3.1v-23.2H882.2z M911.1,649v46.1h-15c6.1-12.1,6.7-30,3.5-46.1H911.1z M911.1,590.8v46.1
				h-14.7c-0.8-2.3-1.6-4.5-2.5-6.6v-39.5H911.1z"/>
			<rect x="816.3" y="458.2" class="st0" width="4" height="261.8"/>
			<rect x="786.4" y="458.2" class="st0" width="4" height="103"/>
			<rect x="758.5" y="458.2" class="st0" width="4" height="49.3"/>
			<rect x="731.5" y="458.2" class="st0" width="4" height="49.3"/>
		</g>
	</g>
	<g id="Layer_4_1_">
		<polyline class="st2" points="538,297.7 415.3,323.9 416.1,297.7 538,297.7 		"/>
		<polyline class="st2" points="714.3,406.2 616.1,427.1 616.8,406.2 714.3,406.2 		"/>
		<polyline class="st2" points="795.3,682 668.2,709.1 669.1,682 795.3,682 		"/>
		<polyline class="st2" points="302.4,716.8 418.1,692.2 417.3,716.8 302.4,716.8 		"/>
		<polyline class="st2" points="420.4,665.4 540.1,639.9 539.3,665.4 420.4,665.4 		"/>
		<polyline class="st2" points="418.3,513.9 538.1,488.3 537.3,513.9 418.3,513.9 		"/>
		<polyline class="st2" points="622.7,659.2 668.2,649.5 667.9,659.2 622.7,659.2 		"/>
		<polyline class="st2" points="795.3,562.6 668.2,589.7 669.1,562.6 795.3,562.6 		"/>
		<path class="st2" d="M822.3,200.5c-11.8,0-23,2.1-33,5.7c-9.8-18.1-25.2-29.7-42.5-29.7c-29.7,0-53.7,34.3-53.7,76.6h204.4
			C894.6,223.7,862,200.5,822.3,200.5z"/>
		<path class="st2" d="M288.9,370.4c-11.8,0-23,2.1-33,5.7c-9.8-18.1-25.2-29.7-42.5-29.7c-29.7,0-53.7,34.3-53.7,76.6h204.4
			C361.2,393.6,328.6,370.4,288.9,370.4z"/>
	</g>
	<g>
		<path class="st3" d="M802.2,716.5V555.3h-20c5.7-22.6-9.3-50.3-10-51.6l-1-1.8h-50V326h-23.3c-0.5-5.6-2.5-16.4-10.6-24.6
			c-6.8-6.8-16.2-10.2-28.1-10.2v-92.9h-7v93.3c-15.8,1.9-24.8,10.1-30,18.8v-92L489.8,116.8V86.4h-7v204.8h-68.1v160.5L296,494.1
			v222.4H108.3v7h556.4h137.5h203.5v-7H802.2z M664.7,660.2h-42.5V538h67c-0.3,7.3,0.5,13.4,1.1,17.3h-25.6v67.6V660.2z
			 M671.7,629.9h123.5v44.5H671.7V629.9z M795.2,622.9H671.7v-60.6h123.5V622.9z M775,555.3h-77.6c-1.3-7.2-3.9-28.2,6.8-46.4H767
			C770.2,515.4,780.4,538.2,775,555.3z M700.4,501.9l-1,1.6c-5.8,9.1-8.5,18.8-9.6,27.5h-67.5V405.6h92v96.2h-13.9V501.9z
			 M657.4,298.2c10.8-0.4,19.2,2.4,24.9,8.1c9.1,9.1,8.8,22.9,8.8,23.1L691,333h23.3v65.6h-92v-64.1
			C622.2,333.1,622.6,299.4,657.4,298.2z M489.8,125.7l125.4,96.2v494.6h-40.6V236.6h-7v479.9h-24.2V291.2h-53.7L489.8,125.7
			L489.8,125.7z M536.5,665.1H421.6v-44.4h114.9V665.1z M421.6,468.5h114.9v44.4H421.6V468.5z M536.5,613.8H421.6v-43.5h114.9V613.8
			z M421.6,563.3v-43.5h114.9v43.5H421.6z M536.5,410.1H421.6v-44.4h114.9V410.1z M536.5,417.1v44.4H421.6v-44.4H536.5L536.5,417.1z
			 M421.6,672.1h114.9v44.4H421.6V672.1z M536.5,298.2v60.6H421.6v-60.6H536.5z M303,499l111.6-39.9v257.4h-29.1v-182h-7v182h-28.3
			v-182h-7v182H303V499L303,499z M622.2,716.5v-49.3h42.5v14.1v35.1L622.2,716.5L622.2,716.5z M671.7,716.5v-35.1h123.5v35.1H671.7z
			"/>
	</g>
</g>
</svg>
