<svg height="511pt" viewBox="0 1 511 511.99987" width="511pt" xmlns="http://www.w3.org/2000/svg"><path d="m218.46875 249.722656h-191.933594v-133.242187l95.964844-90.125 95.96875 90.125zm0 0" fill="#fff4f1"/><path d="m122.5 26.355469-12.015625 11.285156 83.949219 78.839844v133.242187h24.035156v-133.242187zm0 0" fill="#ecedef"/><path d="m486.910156 504.488281h-139.929687c-9.300781 0-16.910157-7.609375-16.910157-16.910156v-273.367187c0-9.296876 7.609376-16.90625 16.910157-16.90625h139.929687c9.300782 0 16.910156 7.609374 16.910156 16.90625v273.367187c0 9.300781-7.609374 16.910156-16.910156 16.910156zm0 0" fill="#fff4f1"/><path d="m486.910156 197.304688h-24.035156c9.300781 0 16.910156 7.609374 16.910156 16.90625v273.367187c0 9.300781-7.609375 16.910156-16.910156 16.910156h24.035156c9.300782 0 16.910156-7.609375 16.910156-16.910156v-273.367187c0-9.296876-7.609374-16.90625-16.910156-16.90625zm0 0" fill="#ecedef"/><path d="m330.070312 461.433594v26.144531c0 9.300781 7.609376 16.910156 16.910157 16.910156h139.929687c9.296875 0 16.90625-7.609375 16.90625-16.910156v-26.144531zm0 0" fill="#f45a3c"/><path d="m503.820312 487.578125v-26.144531h-24.035156v26.144531c0 9.300781-7.609375 16.910156-16.910156 16.910156h24.035156c9.300782 0 16.910156-7.609375 16.910156-16.910156zm0 0" fill="#e24a2a"/><path d="m503.820312 240.359375v-26.144531c0-9.300782-7.609374-16.910156-16.910156-16.910156h-139.929687c-9.300781 0-16.910157 7.609374-16.910157 16.910156v26.144531zm0 0" fill="#f45a3c"/><path d="m479.785156 214.210938v26.144531h24.035156v-26.144531c0-9.296876-7.609374-16.90625-16.910156-16.90625h-24.035156c9.300781 0 16.910156 7.609374 16.910156 16.90625zm0 0" fill="#e24a2a"/><path d="m218.464844 134.671875c-4.546875 0-9.101563-1.664063-12.679688-5.023437l-83.285156-78.214844-83.285156 78.214844c-7.457032 7.003906-19.183594 6.636718-26.1875-.820313-7.003906-7.460937-6.636719-19.183594.824218-26.1875l95.964844-90.125c7.128906-6.699219 18.238282-6.699219 25.367188 0l95.964844 90.125c7.457031 7.003906 7.828124 18.726563.824218 26.1875-3.644531 3.878906-8.570312 5.839844-13.507812 5.84375zm0 0" fill="#f45a3c"/><path d="m231.152344 102.640625-95.96875-90.125c-7.078125-6.648437-18.066406-6.6875-25.199219-.140625.050781.046875.109375.089844.164063.140625l95.96875 90.125c7.457031 7.003906 7.824218 18.726563.820312 26.1875-.320312.335937-.660156.644531-.996094.953125 3.554688 3.265625 8.039063 4.890625 12.523438 4.886719 4.9375 0 9.863281-1.960938 13.507812-5.839844 7.003906-7.460937 6.636719-19.183594-.820312-26.1875zm0 0" fill="#e24a2a"/><path d="m151.691406 150.820312c0 16.121094-13.070312 29.191407-29.191406 29.191407s-29.191406-13.070313-29.191406-29.191407c0-16.121093 13.070312-29.191406 29.191406-29.191406s29.191406 13.070313 29.191406 29.191406zm0 0" fill="#d0cfd1"/><path d="m473.992188 162.910156c-4.148438 0-7.511719-3.363281-7.511719-7.507812 0-27.316406-22.21875-49.539063-49.535157-49.539063-27.316406 0-49.535156 22.222657-49.535156 49.539063 0 4.144531-3.363281 7.507812-7.511718 7.507812-4.148438 0-7.511719-3.363281-7.511719-7.507812 0-35.597656 28.960937-64.558594 64.558593-64.558594 35.597657 0 64.554688 28.960938 64.554688 64.558594 0 4.144531-3.359375 7.507812-7.507812 7.507812zm0 0" fill="#18191b"/><path d="m445.175781 159.179688c-4.148437 0-7.511719-3.363282-7.511719-7.507813 0-11.425781-9.292968-20.71875-20.71875-20.71875-11.425781 0-20.71875 9.292969-20.71875 20.71875 0 4.144531-3.363281 7.507813-7.511718 7.507813-4.148438 0-7.511719-3.363282-7.511719-7.507813 0-19.707031 16.035156-35.742187 35.742187-35.742187 19.707032 0 35.738282 16.035156 35.738282 35.742187 0 4.148437-3.359375 7.507813-7.507813 7.507813zm0 0" fill="#18191b"/><path d="m443.738281 319.351562c0 14.796876-11.996093 26.796876-26.792969 26.796876-14.796874 0-26.792968-12-26.792968-26.796876 0-14.796874 11.996094-26.792968 26.792968-26.792968 14.796876 0 26.792969 11.996094 26.792969 26.792968zm0 0" fill="#4890e3"/><path d="m416.945312 292.558594c-4.125 0-8.027343.933594-11.515624 2.597656 9.035156 4.304688 15.277343 13.519531 15.277343 24.195312 0 10.675782-6.242187 19.890626-15.277343 24.199219 3.488281 1.664063 7.390624 2.597657 11.515624 2.597657 14.796876 0 26.792969-11.996094 26.792969-26.796876 0-14.796874-11.996093-26.792968-26.792969-26.792968zm0 0" fill="#2970d6"/><path d="m138.65625 319.351562c0 14.796876-11.996094 26.796876-26.792969 26.796876-14.800781 0-26.796875-12-26.796875-26.796876 0-14.796874 11.996094-26.792968 26.796875-26.792968 14.796875 0 26.792969 11.996094 26.792969 26.792968zm0 0" fill="#4890e3"/><path d="m111.863281 292.558594c-4.125 0-8.027343.933594-11.515625 2.597656 9.035156 4.304688 15.277344 13.519531 15.277344 24.195312 0 10.675782-6.242188 19.890626-15.277344 24.199219 3.488282 1.664063 7.390625 2.597657 11.515625 2.597657 14.796875 0 26.792969-11.996094 26.792969-26.796876 0-14.796874-11.996094-26.792968-26.792969-26.792968zm0 0" fill="#2970d6"/><path d="m250.199219 417.9375c0 14.800781-12 26.796875-26.796875 26.796875s-26.792969-11.996094-26.792969-26.796875c0-14.796875 11.996094-26.792969 26.792969-26.792969s26.796875 11.996094 26.796875 26.792969zm0 0" fill="#4890e3"/><path d="m223.402344 391.144531c-4.121094 0-8.027344.933594-11.515625 2.59375 9.035156 4.308594 15.277343 13.523438 15.277343 24.199219s-6.242187 19.890625-15.277343 24.199219c3.488281 1.660156 7.394531 2.59375 11.515625 2.59375 14.800781 0 26.796875-11.992188 26.796875-26.792969 0-14.796875-12-26.792969-26.796875-26.792969zm0 0" fill="#2970d6"/><path d="m486.910156 189.792969h-139.929687c-13.464844 0-24.421875 10.953125-24.421875 24.417969v26.144531.019531 75.59375c0 4.148438 3.363281 7.511719 7.511718 7.511719 4.148438 0 7.511719-3.363281 7.511719-7.511719v-68.101562h158.726563v61.546874h-46.53125c-4.273438-14.085937-17.371094-24.367187-32.832032-24.367187-18.917968 0-34.304687 15.390625-34.304687 34.304687 0 16.335938 11.480469 30.03125 26.792969 33.464844v57.609375h-71.851563v-64.277343c0-4.148438-3.363281-7.511719-7.511719-7.511719-4.148437 0-7.511718 3.363281-7.511718 7.511719v64.277343h-65.6875c-3.4375-15.3125-17.132813-26.792969-33.46875-26.792969-16.335938 0-30.03125 11.480469-33.464844 26.792969h-69.0625c-.8125 0-1.503906-.6875-1.503906-1.5v-56.109375c15.316406-3.433594 26.796875-17.128906 26.796875-33.464844 0-16.335937-11.480469-30.03125-26.796875-33.46875v-28.648437h99.097656c4.148438 0 7.511719-3.363281 7.511719-7.511719v-108.664062c4.339843-1.3125 8.320312-3.738282 11.46875-7.089844 9.828125-10.464844 9.308593-26.976562-1.15625-36.800781l-95.964844-90.128907c-9.996094-9.386718-25.65625-9.386718-35.648437 0l-95.96875 90.128907c-5.070313 4.757812-7.980469 11.210937-8.199219 18.160156-.21875 6.953125 2.285156 13.570313 7.046875 18.640625 3.183594 3.390625 7.128906 5.8125 11.46875 7.113281v35.695313c0 4.148437 3.363281 7.511718 7.511718 7.511718 4.144532 0 7.507813-3.363281 7.507813-7.511718v-35.691406c3.808594-1.144532 7.332031-3.160157 10.3125-5.960938l78.144531-73.386719 78.144532 73.386719c2.972656 2.789062 6.5 4.808594 10.3125 5.953125v101.136719h-176.917969v-35.285156c0-4.148438-3.363281-7.511719-7.507813-7.511719-4.148437 0-7.511718 3.363281-7.511718 7.511719v42.796874c0 4.144532 3.363281 7.507813 7.511718 7.507813h77.816406v28.652344c-15.3125 3.4375-26.796874 17.132812-26.796874 33.46875 0 16.335937 11.480468 30.03125 26.796874 33.464843v56.109376c0 9.109374 7.410157 16.523437 16.523438 16.523437h69.058594c3.4375 15.3125 17.132812 26.792969 33.46875 26.792969 16.335937 0 30.03125-11.480469 33.464844-26.792969h65.691406v35.964844.019531 26.140625c0 13.464844 10.953125 24.421875 24.421875 24.421875h139.929687c4.207032 0 8.167969-1.070312 11.628906-2.953125.691407-.375 1.363282-.785156 2.011719-1.222656.652344-.441407 1.277344-.910157 1.882813-1.40625 5.429687-4.484375 8.894531-11.265625 8.894531-18.839844v-273.367187c0-13.464844-10.953125-24.417969-24.417969-24.417969zm-359.269531-143.835938c-1.441406-1.355469-3.292969-2.035156-5.140625-2.035156s-3.695312.679687-5.140625 2.035156l-83.285156 78.21875c-4.425781 4.15625-11.410157 3.9375-15.570313-.492187-2.011718-2.144532-3.070312-4.941406-2.980468-7.882813.09375-2.941406 1.324218-5.671875 3.46875-7.683593l95.96875-90.128907c4.226562-3.96875 10.851562-3.96875 15.082031 0l95.964843 90.128907c4.429688 4.15625 4.648438 11.140624.492188 15.570312-2.105469 2.238281-4.960938 3.472656-8.035156 3.472656-2.808594 0-5.488282-1.058594-7.535156-2.984375zm-35.0625 273.394531c0-10.632812 8.652344-19.285156 19.285156-19.285156 10.632813 0 19.28125 8.652344 19.28125 19.285156 0 10.632813-8.648437 19.285157-19.28125 19.285157-10.632812 0-19.285156-8.652344-19.285156-19.285157zm130.824219 117.871094c-10.632813 0-19.285156-8.652344-19.285156-19.285156s8.652343-19.28125 19.285156-19.28125c10.632812 0 19.285156 8.648438 19.285156 19.28125s-8.652344 19.285156-19.285156 19.285156zm114.179687-204.375v-18.636718c0-4.855469 3.703125-8.867188 8.4375-9.347657.316407-.03125.636719-.050781.960938-.050781h139.929687c5.179688 0 9.398438 4.21875 9.398438 9.398438v18.636718zm60.078125 86.503906c0-10.632812 8.652344-19.285156 19.285156-19.285156 10.632813 0 19.285157 8.652344 19.285157 19.285156 0 10.632813-8.652344 19.285157-19.285157 19.285157-10.632812 0-19.285156-8.652344-19.285156-19.285157zm19.285156 106.097657c4.148438 0 7.511719-3.363281 7.511719-7.511719v-65.121094c13.695313-3.070312 24.320313-14.347656 26.414063-28.382812h45.4375v129.492187h-158.726563v-28.476562zm79.363282 62.128906c0 3.886719-2.371094 7.230469-5.742188 8.660156-1.125.476563-2.359375.738281-3.65625.738281h-139.929687c-.324219 0-.644531-.015624-.960938-.046874-4.730469-.484376-8.4375-4.492188-8.4375-9.351563v-18.632813h158.726563zm0 0"/><path d="m159.203125 150.820312c0-20.238281-16.464844-36.703124-36.703125-36.703124-20.234375 0-36.699219 16.464843-36.699219 36.703124 0 20.238282 16.464844 36.699219 36.699219 36.699219 20.238281 0 36.703125-16.460937 36.703125-36.699219zm-58.382813 0c0-11.953124 9.726563-21.679687 21.679688-21.679687 11.957031 0 21.679688 9.726563 21.679688 21.679687 0 11.953126-9.722657 21.679688-21.679688 21.679688-11.953125 0-21.679688-9.726562-21.679688-21.679688zm0 0"/></svg>