<?xml version="1.0" encoding="utf-8"?>
<!-- Generator: Adobe Illustrator 23.0.1, SVG Export Plug-In . SVG Version: 6.00 Build 0)  -->
<svg version="1.1" id="Layer_1" xmlns="http://www.w3.org/2000/svg" xmlns:xlink="http://www.w3.org/1999/xlink" x="0px" y="0px"
	 viewBox="0 0 500 500" style="enable-background:new 0 0 500 500;" xml:space="preserve">
<g>
	<path d="M336.57,25.04h-4.35c-2.97-0.79-6.13-0.81-9.2,0H83.61c-14.87,0-26.97,12.31-26.97,27.45v395.73
		c0,15.14,12.1,27.46,26.97,27.46h333.57c14.87,0,26.97-12.32,26.97-27.46V138.81L336.57,25.04z M401.09,133.89h-65.91V62.23
		L401.09,133.89z M417.17,449.82H83.61c-0.53,0-1.12-0.66-1.12-1.61V52.49c0-0.92,0.59-1.6,1.12-1.6h225.72v90.41
		c0,10.17,8.19,18.45,18.26,18.45h90.5c0.07,0,0.13-0.01,0.2-0.01v288.48C418.29,449.17,417.7,449.82,417.17,449.82z"/>
	<path d="M116.07,134.85h158.68c4.76,0,8.62-3.85,8.62-8.62c0-4.76-3.85-8.62-8.62-8.62H116.07c-4.76,0-8.62,3.85-8.62,8.62
		C107.46,131,111.31,134.85,116.07,134.85z"/>
	<path d="M209.09,369.32h-93.02c-4.76,0-8.62,3.85-8.62,8.62c0,4.76,3.85,8.62,8.62,8.62h93.02c4.76,0,8.62-3.85,8.62-8.62
		C217.71,373.17,213.85,369.32,209.09,369.32z"/>
	<path d="M116.07,214.19h251.7c4.76,0,8.62-3.85,8.62-8.62c0-4.76-3.85-8.62-8.62-8.62h-251.7c-4.76,0-8.62,3.85-8.62,8.62
		C107.46,210.33,111.31,214.19,116.07,214.19z"/>
	<path d="M116.07,252.49h204.59c4.76,0,8.62-3.85,8.62-8.62c0-4.76-3.85-8.62-8.62-8.62H116.07c-4.76,0-8.62,3.85-8.62,8.62
		C107.46,248.64,111.31,252.49,116.07,252.49z"/>
	<path d="M278.52,276.29H116.07c-4.76,0-8.62,3.85-8.62,8.62s3.85,8.62,8.62,8.62h162.45c4.76,0,8.62-3.85,8.62-8.62
		S283.28,276.29,278.52,276.29z"/>
	<path d="M337.68,314.6c-28.89,0-52.4,23.5-52.4,52.39c0,28.89,23.5,52.4,52.4,52.4c28.88,0,52.39-23.5,52.39-52.4
		C390.07,338.11,366.56,314.6,337.68,314.6z M337.68,402.15c-19.39,0-35.16-15.77-35.16-35.16c0-19.38,15.77-35.15,35.16-35.15
		c19.38,0,35.15,15.77,35.15,35.15C372.83,386.38,357.06,402.15,337.68,402.15z"/>
</g>
</svg>
