<?xml version="1.0" encoding="utf-8"?>
<!-- Generator: Adobe Illustrator 23.0.1, SVG Export Plug-In . SVG Version: 6.00 Build 0)  -->
<svg version="1.1" id="Layer_1" xmlns="http://www.w3.org/2000/svg" xmlns:xlink="http://www.w3.org/1999/xlink" x="0px" y="0px"
	 viewBox="0 0 500 500" style="enable-background:new 0 0 500 500;" xml:space="preserve">
<g>
	<path d="M248.19,430.14H124.51c-20.56,0-37.29-16.72-37.29-37.28V109.14c0-20.56,16.73-37.28,37.29-37.28h123.68
		c8.73,0,15.81-7.08,15.81-15.81c0-8.73-7.08-15.81-15.81-15.81H124.51c-37.99,0-68.91,30.9-68.91,68.9v283.72
		c0,37.99,30.91,68.9,68.91,68.9h123.68c8.73,0,15.81-7.08,15.81-15.81C264,437.22,256.91,430.14,248.19,430.14z"/>
	<path d="M435.79,233.59l-72.81-74.45c-6.1-6.24-16.1-6.35-22.35-0.25c-6.24,6.1-6.35,16.11-0.25,22.35l54.28,55.51h-196.8
		c-8.73,0-15.81,7.08-15.81,15.81c0,8.73,7.08,15.81,15.81,15.81h194.85l-55.98,55.32c-6.21,6.14-6.27,16.15-0.13,22.36
		c3.1,3.13,7.17,4.69,11.25,4.69c4.01,0,8.03-1.52,11.11-4.56l76.29-75.4C445.6,260.55,445.85,243.87,435.79,233.59z"/>
</g>
</svg>
