<?xml version="1.0" encoding="utf-8"?>
<!-- Generator: Adobe Illustrator 23.0.1, SVG Export Plug-In . SVG Version: 6.00 Build 0)  -->
<svg version="1.1" id="Layer_1" xmlns="http://www.w3.org/2000/svg" xmlns:xlink="http://www.w3.org/1999/xlink" x="0px" y="0px"
	 viewBox="0 0 500 500" style="enable-background:new 0 0 500 500;" xml:space="preserve">
<g>
	<path d="M423.61,311.39c-18.54-18.42-29.19-45.96-29.19-75.54v-49.32c0-69.7-49.76-127.99-115.62-141.22
		C276.64,31.58,264.69,21,250.39,21c-14.31,0-26.25,10.58-28.41,24.31c-65.86,13.23-115.63,71.52-115.63,141.22v49.32
		c0,29.58-10.64,57.12-29.2,75.54c-15.28,15.19-22.58,36.16-20.02,57.56c4.16,34.81,34.99,61.05,71.7,61.05h56.87
		c6.85,28.07,33.25,49.04,64.69,49.04s57.83-20.97,64.68-49.04h56.87c36.71,0,67.54-26.25,71.7-61.05
		C446.2,347.54,438.9,326.57,423.61,311.39z M250.39,447.89c-13.8,0-25.78-7.3-31.57-17.89h63.14
		C276.17,440.6,264.2,447.89,250.39,447.89z M412.72,365.26c-2.25,18.84-20.17,33.6-40.78,33.6H128.83
		c-20.61,0-38.53-14.76-40.78-33.6c-1.41-11.81,2.63-23.39,11.05-31.76c24.4-24.22,38.39-59.82,38.39-97.64v-49.32
		c0-62.25,50.64-112.89,112.89-112.89c62.24,0,112.88,50.64,112.88,112.89v49.32c0,37.82,13.99,73.4,38.39,97.64
		C410.11,341.87,414.13,353.44,412.72,365.26z"/>
	<path d="M190.29,118.66c-1.43,1.52-34.94,38.46-28.54,127.97c2.99,41.91-11.13,56.91-22.49,68.95c-4.98,5.29-9.68,10.28-12.33,16.9
		c-3.13,7.84,0.7,16.39,8.46,19.73c1.92,0.83,3.92,1.22,5.91,1.22c6.03,0,11.87-3.58,14.54-9.35c0.6-1.31,3.78-4.68,6.09-7.15
		c13.04-13.83,34.85-36.99,30.88-92.51c-5.27-73.79,19.61-103.75,20.36-104.63c5.74-6.3,5.36-16.04-0.87-21.87
		C206.03,112.05,196.18,112.35,190.29,118.66z"/>
</g>
</svg>
