<?xml version="1.0" encoding="utf-8"?>
<!-- Generator: Adobe Illustrator 23.0.1, SVG Export Plug-In . SVG Version: 6.00 Build 0)  -->
<svg version="1.1" id="Layer_1" xmlns="http://www.w3.org/2000/svg" xmlns:xlink="http://www.w3.org/1999/xlink" x="0px" y="0px"
	 viewBox="0 0 500 500" style="enable-background:new 0 0 500 500;" xml:space="preserve">
<g>
	<path d="M438.88,218.87c-3.85-4.59-9.27-7.39-15.23-7.9l-47.37-4.07l-26.47-101.7c-1.51-5.8-5.18-10.67-10.35-13.7
		c-5.18-3.03-11.2-3.89-16.99-2.35L73.4,153.98c-5.79,1.51-10.65,5.18-13.68,10.35c-3.04,5.17-3.87,11.21-2.36,16.99l39.55,151.95
		c1.51,5.79,5.18,10.65,10.35,13.68c3.48,2.05,7.37,3.09,11.3,3.09c1.9,0,3.81-0.24,5.69-0.74l6.83-1.78l-1.57,18.24
		c-0.51,5.96,1.33,11.77,5.18,16.35c3.86,4.58,9.28,7.39,15.24,7.9l256.41,22.05h0.01c0.66,0.06,1.31,0.09,1.95,0.09
		c5.28,0,10.33-1.84,14.4-5.27c4.59-3.85,7.39-9.27,7.9-15.23l13.45-156.44C444.57,229.26,442.73,223.45,438.88,218.87z
		 M350.58,204.69l-76.09-6.55L344.15,180L350.58,204.69z M326.75,113.15l6.38,24.52L87.76,201.56l-6.38-24.53L326.75,113.15z
		 M133.3,321.83l-13.34,3.47l-21.19-81.42l42.18-10.98L133.3,321.83z M406.55,387.69l-252.64-21.73l13.13-152.66l252.64,21.73
		L406.55,387.69z"/>
	<path d="M240.26,254.59l-59.74-5.13l-5.13,59.72l59.72,5.14L240.26,254.59z M220.36,296.79l-27.43-2.36l2.36-27.43l27.43,2.36
		L220.36,296.79z"/>
	<path d="M180.38,345.77l133.3,11.46c0.24,0.02,0.47,0.03,0.7,0.03c4.16,0,7.7-3.19,8.06-7.41c0.39-4.46-2.92-8.39-7.38-8.77
		l-133.3-11.46c-4.63-0.45-8.39,2.92-8.77,7.38C172.61,341.47,175.92,345.39,180.38,345.77z"/>
	<path d="M334.18,359l48.71,4.19c0.24,0.02,0.47,0.03,0.7,0.03c4.16,0,7.7-3.19,8.06-7.41c0.39-4.46-2.92-8.39-7.38-8.77
		l-48.71-4.19c-4.54-0.5-8.39,2.92-8.77,7.38C326.42,354.69,329.73,358.62,334.18,359z"/>
</g>
</svg>
