<?xml version="1.0" encoding="utf-8"?>
<!-- Generator: Adobe Illustrator 23.0.1, SVG Export Plug-In . SVG Version: 6.00 Build 0)  -->
<svg version="1.1" id="Layer_1" xmlns="http://www.w3.org/2000/svg" xmlns:xlink="http://www.w3.org/1999/xlink" x="0px" y="0px"
	 viewBox="0 0 500 500" style="enable-background:new 0 0 500 500;" xml:space="preserve">
<g>
	<path d="M393.42,201.94h-49.92v-78c0-51.34-41.76-93.1-93.1-93.1c-51.34,0-93.1,41.76-93.1,93.1v78h-49.92
		c-27.97,0-50.73,22.75-50.73,50.73v165.27c0,27.97,22.75,50.73,50.73,50.73h286.05c27.97,0,50.73-22.75,50.73-50.73V252.67
		C444.15,224.69,421.39,201.94,393.42,201.94z M187.48,123.93c0-34.69,28.22-62.91,62.91-62.91c34.69,0,62.91,28.22,62.91,62.91v78
		H187.48V123.93z M413.95,417.94c0,11.32-9.21,20.53-20.53,20.53H107.36c-11.32,0-20.53-9.21-20.53-20.53V252.67
		c0-11.32,9.21-20.53,20.53-20.53h286.05c11.32,0,20.53,9.21,20.53,20.53V417.94z"/>
	<path d="M250.39,277.43c-20.84,0-37.74,16.9-37.74,37.74c0,15.47,9.33,28.73,22.65,34.56v43.45h30.2v-43.45
		c13.32-5.83,22.65-19.09,22.65-34.56C288.13,294.33,271.23,277.43,250.39,277.43z"/>
</g>
</svg>
