<?xml version="1.0" encoding="utf-8"?>
<!-- Generator: Adobe Illustrator 23.0.1, SVG Export Plug-In . SVG Version: 6.00 Build 0)  -->
<svg version="1.1" id="Layer_1" xmlns="http://www.w3.org/2000/svg" xmlns:xlink="http://www.w3.org/1999/xlink" x="0px" y="0px"
	 viewBox="0 0 500 500" style="enable-background:new 0 0 500 500;" xml:space="preserve">
<g>
	<path d="M100.92,88.02h192.59c3.55,0,6.42-2.87,6.42-6.42c0-3.55-2.87-6.42-6.42-6.42H100.92c-3.55,0-6.42,2.87-6.42,6.42
		C94.5,85.15,97.37,88.02,100.92,88.02z"/>
	<path d="M170.24,412.73h-69.31c-3.55,0-6.42,2.87-6.42,6.42c0,3.55,2.87,6.42,6.42,6.42h69.31c3.55,0,6.42-2.87,6.42-6.42
		C176.66,415.6,173.79,412.73,170.24,412.73z"/>
	<path d="M100.92,124.66h138.01c3.55,0,6.42-2.87,6.42-6.42c0-3.55-2.87-6.42-6.42-6.42H100.92c-3.55,0-6.42,2.87-6.42,6.42
		C94.5,121.79,97.37,124.66,100.92,124.66z"/>
	<path d="M100.92,159.63h102.7c3.55,0,6.42-2.87,6.42-6.42c0-3.55-2.87-6.42-6.42-6.42h-102.7c-3.55,0-6.42,2.87-6.42,6.42
		C94.5,156.75,97.37,159.63,100.92,159.63z"/>
	<path d="M100.92,194.56h192.59c3.55,0,6.42-2.87,6.42-6.42s-2.87-6.42-6.42-6.42H100.92c-3.55,0-6.42,2.87-6.42,6.42
		S97.37,194.56,100.92,194.56z"/>
	<path d="M100.92,231.2h138.01c3.55,0,6.42-2.87,6.42-6.42c0-3.55-2.87-6.42-6.42-6.42H100.92c-3.55,0-6.42,2.87-6.42,6.42
		C94.5,228.33,97.37,231.2,100.92,231.2z"/>
	<path d="M203.62,253.33h-102.7c-3.55,0-6.42,2.87-6.42,6.42c0,3.55,2.87,6.42,6.42,6.42h102.7c3.55,0,6.42-2.87,6.42-6.42
		C210.04,256.2,207.17,253.33,203.62,253.33z"/>
	<path d="M200.41,372.31h-99.49c-3.55,0-6.42,2.87-6.42,6.42c0,3.55,2.87,6.42,6.42,6.42h99.49c3.55,0,6.42-2.87,6.42-6.42
		C206.83,375.18,203.96,372.31,200.41,372.31z"/>
	<path d="M439.31,380.54l-61.51-35.31c5.5-11.19,8.6-23.75,8.6-37.04c0-31.45-17.33-58.91-42.94-73.39l-1.6-179.74
		c-0.17-13.72-11.47-24.88-25.18-24.88H76.74c-11.09,0-20.1,9.17-20.1,20.45v397.86c0,11.28,9.02,20.46,20.1,20.46h248.54
		c11.09,0,20.1-9.18,20.1-20.58l-0.31-67.73c8.51-5.06,16.06-11.57,22.3-19.2l62.34,35.79c1.51,0.87,3.16,1.28,4.79,1.28
		c3.34,0,6.58-1.74,8.36-4.83C445.51,389.08,443.92,383.19,439.31,380.54z M326.12,448.51c0,0.68-0.45,1.2-0.84,1.2H76.74
		c-0.4,0-0.84-0.51-0.84-1.2V50.65c0-0.68,0.45-1.19,0.84-1.19h239.94c3.22,0,5.88,2.63,5.92,5.85l1.49,171.55
		c-7-1.89-14.35-2.92-21.95-2.92c-46.46,0-84.26,37.8-84.26,84.26c0,46.46,37.8,84.26,84.26,84.26c8.28,0,16.27-1.22,23.83-3.45
		L326.12,448.51z M302.14,373.2c-35.84,0-64.99-29.16-64.99-64.99c0-35.84,29.16-64.99,64.99-64.99s64.99,29.16,64.99,64.99
		C367.14,344.04,337.98,373.2,302.14,373.2z"/>
	<path d="M344.39,285.21c2.8-2.18,3.29-6.22,1.11-9.01c-12.25-15.68-31.42-25.05-51.27-25.06h-0.01c-3.54,0-6.42,2.87-6.42,6.41
		c0,3.55,2.87,6.43,6.41,6.43c15.94,0.01,31.33,7.54,41.17,20.12c1.27,1.62,3.15,2.47,5.07,2.47
		C341.82,286.57,343.22,286.12,344.39,285.21z"/>
	<path d="M353.22,306.53c-1-3.39-4.51-5.37-7.98-4.34c-3.4,1-5.34,4.57-4.34,7.98c0.3,1.02,0.15,2.23-0.4,3.15
		c-1.79,3.06-0.77,7,2.29,8.79c1.02,0.6,2.14,0.88,3.24,0.88c2.21,0,4.35-1.13,5.55-3.17C353.94,315.81,354.53,310.97,353.22,306.53
		z"/>
</g>
</svg>
