<?xml version="1.0" encoding="utf-8"?>
<!-- Generator: Adobe Illustrator 23.0.1, SVG Export Plug-In . SVG Version: 6.00 Build 0)  -->
<svg version="1.1" id="Layer_2" xmlns="http://www.w3.org/2000/svg" xmlns:xlink="http://www.w3.org/1999/xlink" x="0px" y="0px"
	 viewBox="0 0 500 500" style="enable-background:new 0 0 500 500;" xml:space="preserve">
<style type="text/css">
	.st0{fill:#FFFFFF;}
	.st1{fill:none;stroke:#000000;stroke-width:9;stroke-miterlimit:10;}
</style>
<g>
	<line class="st0" x1="55.56" y1="421.64" x2="444.87" y2="421.64"/>
	<path d="M436.87,429.64H63.56c-4.42,0-8-3.58-8-8l0,0c0-4.42,3.58-8,8-8h373.31c4.42,0,8,3.58,8,8l0,0
		C444.87,426.06,441.29,429.64,436.87,429.64z"/>
</g>
<path d="M423.1,429.64h-72.49v-62.6h-16.06v62.6H171.98v-61.83H154.4v61.83H84.96V204.92c0-6.57,5.32-11.89,11.89-11.89h134.2
	c6.57,0,11.89,5.32,11.89,11.89v208.72h21.4V65.99c0-6.57,5.32-11.89,11.89-11.89h134.96c6.57,0,11.89,5.32,11.89,11.89V429.64z
	 M366.61,413.64h40.49V70.1H280.35v343.54h38.2v-53.37c0-5.1,4.13-9.23,9.23-9.23h29.6c5.1,0,9.23,4.13,9.23,9.23V413.64z
	 M187.98,413.64h38.96V209.03H100.96v204.61h37.44v-52.6c0-5.1,4.13-9.23,9.23-9.23h31.13c5.1,0,9.23,4.13,9.23,9.23V413.64z"/>
<path class="st1" d="M142.2,265.53h-17.94c-4.22,0-7.63-3.42-7.63-7.63v-17.94c0-4.22,3.42-7.63,7.63-7.63h17.94
	c4.22,0,7.63,3.42,7.63,7.63v17.94C149.83,262.12,146.41,265.53,142.2,265.53z"/>
<path class="st1" d="M204.05,265.53h-17.94c-4.22,0-7.63-3.42-7.63-7.63v-17.94c0-4.22,3.42-7.63,7.63-7.63h17.94
	c4.22,0,7.63,3.42,7.63,7.63v17.94C211.69,262.12,208.27,265.53,204.05,265.53z"/>
<path class="st1" d="M142.2,329.85h-17.94c-4.22,0-7.63-3.42-7.63-7.63v-17.94c0-4.22,3.42-7.63,7.63-7.63h17.94
	c4.22,0,7.63,3.42,7.63,7.63v17.94C149.83,326.43,146.41,329.85,142.2,329.85z"/>
<path class="st1" d="M204.05,329.85h-17.94c-4.22,0-7.63-3.42-7.63-7.63v-17.94c0-4.22,3.42-7.63,7.63-7.63h17.94
	c4.22,0,7.63,3.42,7.63,7.63v17.94C211.69,326.43,208.27,329.85,204.05,329.85z"/>
<path class="st1" d="M322.54,335.95H304.6c-4.22,0-7.63-3.42-7.63-7.63v-17.94c0-4.22,3.42-7.63,7.63-7.63h17.94
	c4.22,0,7.63,3.42,7.63,7.63v17.94C330.18,332.54,326.76,335.95,322.54,335.95z"/>
<path class="st1" d="M384.4,335.95h-17.94c-4.22,0-7.63-3.42-7.63-7.63v-17.94c0-4.22,3.42-7.63,7.63-7.63h17.94
	c4.22,0,7.63,3.42,7.63,7.63v17.94C392.03,332.54,388.61,335.95,384.4,335.95z"/>
<path class="st1" d="M322.54,281.56H304.6c-4.22,0-7.63-3.42-7.63-7.63v-17.94c0-4.22,3.42-7.63,7.63-7.63h17.94
	c4.22,0,7.63,3.42,7.63,7.63v17.94C330.18,278.14,326.76,281.56,322.54,281.56z"/>
<path class="st1" d="M384.4,281.56h-17.94c-4.22,0-7.63-3.42-7.63-7.63v-17.94c0-4.22,3.42-7.63,7.63-7.63h17.94
	c4.22,0,7.63,3.42,7.63,7.63v17.94C392.03,278.14,388.61,281.56,384.4,281.56z"/>
<path class="st1" d="M321.78,227.16h-17.94c-4.22,0-7.63-3.42-7.63-7.63v-17.94c0-4.22,3.42-7.63,7.63-7.63h17.94
	c4.22,0,7.63,3.42,7.63,7.63v17.94C329.41,223.74,325.99,227.16,321.78,227.16z"/>
<path class="st1" d="M383.63,227.16h-17.94c-4.22,0-7.63-3.42-7.63-7.63v-17.94c0-4.22,3.42-7.63,7.63-7.63h17.94
	c4.22,0,7.63,3.42,7.63,7.63v17.94C391.27,223.74,387.85,227.16,383.63,227.16z"/>
<path class="st1" d="M321.78,172.76h-17.94c-4.22,0-7.63-3.42-7.63-7.63v-17.94c0-4.22,3.42-7.63,7.63-7.63h17.94
	c4.22,0,7.63,3.42,7.63,7.63v17.94C329.41,169.35,325.99,172.76,321.78,172.76z"/>
<path class="st1" d="M383.63,172.76h-17.94c-4.22,0-7.63-3.42-7.63-7.63v-17.94c0-4.22,3.42-7.63,7.63-7.63h17.94
	c4.22,0,7.63,3.42,7.63,7.63v17.94C391.27,169.35,387.85,172.76,383.63,172.76z"/>
<path class="st1" d="M321.76,118.37h-17.94c-4.22,0-7.63-3.42-7.63-7.63V92.79c0-4.22,3.42-7.63,7.63-7.63h17.94
	c4.22,0,7.63,3.42,7.63,7.63v17.94C329.39,114.95,325.97,118.37,321.76,118.37z"/>
<path class="st1" d="M383.61,118.37h-17.94c-4.22,0-7.63-3.42-7.63-7.63V92.79c0-4.22,3.42-7.63,7.63-7.63h17.94
	c4.22,0,7.63,3.42,7.63,7.63v17.94C391.24,114.95,387.83,118.37,383.61,118.37z"/>
</svg>
