<?xml version="1.0" encoding="utf-8"?>
<!-- Generator: Adobe Illustrator 23.0.1, SVG Export Plug-In . SVG Version: 6.00 Build 0)  -->
<svg version="1.1" xmlns="http://www.w3.org/2000/svg" xmlns:xlink="http://www.w3.org/1999/xlink" x="0px" y="0px"
	 viewBox="0 0 500 500" style="enable-background:new 0 0 500 500;" xml:space="preserve">
<style type="text/css">
	.st0{display:none;}
	.st1{fill:none;stroke:#000000;stroke-width:16;stroke-miterlimit:10;}
	.st2{fill:none;stroke:#000000;stroke-width:12;stroke-miterlimit:10;}
	.st3{fill:none;stroke:#000000;stroke-width:8;stroke-miterlimit:10;}
</style>
<g id="Layer_1" class="st0">
	
		<image style="display:inline;overflow:visible;" width="512" height="512" xlink:href="condominium.png"  transform="matrix(0.7512 0 0 0.7512 57.6985 44.145)">
	</image>
	
		<image style="overflow:visible;" width="512" height="512" xlink:href="apartment.png"  transform="matrix(0.9766 0 0 0.9766 0 0)">
	</image>
</g>
<g id="Layer_2">
	<path class="st1" d="M331.17,418.06H167.05V77.98c0-14.12,11.45-25.57,25.57-25.57H305.6c14.12,0,25.57,11.45,25.57,25.57V418.06z"
		/>
	<path class="st1" d="M167.05,366.15H63.23V109.28c0-14.12,11.45-25.57,25.57-25.57h78.24V366.15z"/>
	<path class="st2" d="M270.86,418.06h-41.98v-43.89c0-6.53,5.3-11.83,11.83-11.83h18.32c6.53,0,11.83,5.3,11.83,11.83V418.06z"/>
	<path class="st2" d="M140.33,366.15H98.34v-37.02c0-6.53,5.3-11.83,11.83-11.83h18.32c6.53,0,11.83,5.3,11.83,11.83V366.15z"/>
	<path class="st3" d="M225.44,129.13h-19.47c-3.79,0-6.87-3.08-6.87-6.87v-19.47c0-3.79,3.08-6.87,6.87-6.87h19.47
		c3.79,0,6.87,3.08,6.87,6.87v19.47C232.31,126.05,229.24,129.13,225.44,129.13z"/>
	<path class="st3" d="M290.71,129.13h-19.47c-3.79,0-6.87-3.08-6.87-6.87v-19.47c0-3.79,3.08-6.87,6.87-6.87h19.47
		c3.79,0,6.87,3.08,6.87,6.87v19.47C297.58,126.05,294.5,129.13,290.71,129.13z"/>
	<path class="st3" d="M226.21,181.99h-19.47c-3.79,0-6.87-3.08-6.87-6.87v-19.47c0-3.79,3.08-6.87,6.87-6.87h19.47
		c3.79,0,6.87,3.08,6.87,6.87v19.47C233.08,178.92,230,181.99,226.21,181.99z"/>
	<path class="st3" d="M291.47,181.99h-19.47c-3.79,0-6.87-3.08-6.87-6.87v-19.47c0-3.79,3.08-6.87,6.87-6.87h19.47
		c3.79,0,6.87,3.08,6.87,6.87v19.47C298.34,178.92,295.27,181.99,291.47,181.99z"/>
	<path class="st3" d="M227.1,234.85h-19.47c-3.79,0-6.87-3.08-6.87-6.87v-19.47c0-3.79,3.08-6.87,6.87-6.87h19.47
		c3.79,0,6.87,3.08,6.87,6.87v19.47C233.97,231.78,230.89,234.85,227.1,234.85z"/>
	<path class="st3" d="M292.37,234.85H272.9c-3.79,0-6.87-3.08-6.87-6.87v-19.47c0-3.79,3.08-6.87,6.87-6.87h19.47
		c3.79,0,6.87,3.08,6.87,6.87v19.47C299.24,231.78,296.16,234.85,292.37,234.85z"/>
	<path class="st3" d="M227.1,288.77h-19.47c-3.79,0-6.87-3.08-6.87-6.87v-19.47c0-3.79,3.08-6.87,6.87-6.87h19.47
		c3.79,0,6.87,3.08,6.87,6.87v19.47C233.97,285.69,230.89,288.77,227.1,288.77z"/>
	<path class="st3" d="M292.37,288.77H272.9c-3.79,0-6.87-3.08-6.87-6.87v-19.47c0-3.79,3.08-6.87,6.87-6.87h19.47
		c3.79,0,6.87,3.08,6.87,6.87v19.47C299.24,285.69,296.16,288.77,292.37,288.77z"/>
	<path class="st3" d="M227.1,342.15h-19.47c-3.79,0-6.87-3.08-6.87-6.87v-19.47c0-3.79,3.08-6.87,6.87-6.87h19.47
		c3.79,0,6.87,3.08,6.87,6.87v19.47C233.97,339.08,230.89,342.15,227.1,342.15z"/>
	<path class="st3" d="M292.37,342.15H272.9c-3.79,0-6.87-3.08-6.87-6.87v-19.47c0-3.79,3.08-6.87,6.87-6.87h19.47
		c3.79,0,6.87,3.08,6.87,6.87v19.47C299.24,339.08,296.16,342.15,292.37,342.15z"/>
	<path class="st3" d="M129.07,151.63H109.6c-3.79,0-6.87-3.08-6.87-6.87v-19.47c0-3.79,3.08-6.87,6.87-6.87h19.47
		c3.79,0,6.87,3.08,6.87,6.87v19.47C135.94,148.55,132.86,151.63,129.07,151.63z"/>
	<path class="st3" d="M129.07,198.6H109.6c-3.79,0-6.87-3.08-6.87-6.87v-19.47c0-3.79,3.08-6.87,6.87-6.87h19.47
		c3.79,0,6.87,3.08,6.87,6.87v19.47C135.94,195.52,132.86,198.6,129.07,198.6z"/>
	<path class="st3" d="M129.07,245.56H109.6c-3.79,0-6.87-3.08-6.87-6.87v-19.47c0-3.79,3.08-6.87,6.87-6.87h19.47
		c3.79,0,6.87,3.08,6.87,6.87v19.47C135.94,242.49,132.86,245.56,129.07,245.56z"/>
	<path class="st3" d="M129.07,292.53H109.6c-3.79,0-6.87-3.08-6.87-6.87V266.2c0-3.79,3.08-6.87,6.87-6.87h19.47
		c3.79,0,6.87,3.08,6.87,6.87v19.47C135.94,289.46,132.86,292.53,129.07,292.53z"/>
	<path class="st1" d="M334.22,370.18h103.82V113.31c0-14.12-11.45-25.57-25.57-25.57h-78.24V370.18z"/>
	<path class="st2" d="M360.94,370.18h41.98v-37.02c0-6.53-5.3-11.83-11.83-11.83h-18.32c-6.53,0-11.83,5.3-11.83,11.83V370.18z"/>
	<path class="st3" d="M372.2,155.66h19.47c3.79,0,6.87-3.08,6.87-6.87v-19.47c0-3.79-3.08-6.87-6.87-6.87H372.2
		c-3.79,0-6.87,3.08-6.87,6.87v19.47C365.33,152.58,368.4,155.66,372.2,155.66z"/>
	<path class="st3" d="M372.2,202.63h19.47c3.79,0,6.87-3.08,6.87-6.87v-19.47c0-3.79-3.08-6.87-6.87-6.87H372.2
		c-3.79,0-6.87,3.08-6.87,6.87v19.47C365.33,199.55,368.4,202.63,372.2,202.63z"/>
	<path class="st3" d="M372.2,249.6h19.47c3.79,0,6.87-3.08,6.87-6.87v-19.47c0-3.79-3.08-6.87-6.87-6.87H372.2
		c-3.79,0-6.87,3.08-6.87,6.87v19.47C365.33,246.52,368.4,249.6,372.2,249.6z"/>
	<path class="st3" d="M372.2,296.56h19.47c3.79,0,6.87-3.08,6.87-6.87v-19.47c0-3.79-3.08-6.87-6.87-6.87H372.2
		c-3.79,0-6.87,3.08-6.87,6.87v19.47C365.33,293.49,368.4,296.56,372.2,296.56z"/>
</g>
</svg>
